<svg version="1.2" xmlns="http://www.w3.org/2000/svg" viewBox="0 0 400 400" width="400" height="400">
	<title>snigdhaos-logo</title>
	<style>
		.s0 { fill: #6495ed } 
	</style>
	<path id="Path 7" fill-rule="evenodd" class="s0" d="m114.2 167.4q30.6 32.1 2.1 64.1-25.5 24.8-49.8 27.2c10.2-8.8 13.1-23.5 6.9-35.5q-31-32.4-46.6-56.7-17.9-47.1 48.6-63.9 11.2-18.4 108.6-66.1c18.3-5.2 37.8 3.3 46.2 20.5 8.3 17.1 3.3 37.7-12.1 49l-134 8.5q-2.3 24.5 30.1 52.9zm-42.1-51.5c-13.6 4-31.3 11.4-35.9 24.2-2.4 6.9-1.1 14.4 1.3 21 12.5 19.2 28.7 37.5 44.5 53.9l1.2 1.3 0.9 1.5c3.3 6.5 4.7 13.7 4.4 20.7 7.1-4.4 13.5-9.8 19.2-15.2 14.7-16.9 13.4-31.1-1.8-47.3-17.1-15.1-34.8-35.9-33.8-60.1zm147.4-53.6c-5.7-11.6-18.8-17.7-31.4-14.6-24.8 12.2-50.2 25.1-73.7 39.4-4.4 2.6-14.9 9.2-22.1 14.9l121.3-7.6c8.8-8.1 11.2-21.2 5.9-32.1z"/>
	<path id="Path 8" fill-rule="evenodd" class="s0" d="m286.1 233.4q-30.6-31.9-2.2-64 25.6-24.7 49.9-27.1c-10.2 8.8-13 23.4-7 35.4q31.1 32.3 46.7 56.8 17.8 47-48.6 63.8-11.1 18.4-108.7 66.1c-18.3 5.3-37.6-3.4-46.1-20.5-8.3-17.1-3.3-37.7 12-49.1l134-8.4q2.4-24.6-30-53zm42.1 51.7c13.6-4.1 31.3-11.4 35.9-24.4 2.4-6.7 1.1-14.2-1.4-20.9-12.4-19.1-28.8-37.4-44.4-53.9l-1.3-1.2-0.8-1.5c-3.3-6.6-4.7-13.7-4.5-20.7-7 4.3-13.5 9.7-19.1 15.2-14.8 16.7-13.4 31.1 1.7 47.2 17.2 15 34.9 36 33.9 60.2zm-147.4 53.6c5.7 11.5 18.8 17.5 31.3 14.5 24.8-12.2 50.2-25 73.9-39.4 4.3-2.6 14.8-9.1 21.9-14.9l-121.1 7.7c-8.8 8.1-11.3 21.1-6 32.1z"/>
	<path id="A" class="s0" aria-label="A"  d="m217.9 128.2l59.4 122.7q3.7 7.5 3.7 11.3 0 7.9-12.8 14.3-7.4 3.7-12.5 3.7-3.5 0-6.4-2-2.6-2-3.9-4.2-1.1-2.2-3.3-6.6l-11.5-23.7h-60.9l-11.5 23.7q-2.2 4.4-3.5 6.4-1.1 2-3.9 4.2-2.7 2-6.2 2-5.1 0-12.5-3.8-12.8-6.1-12.8-14 0-3.8 3.7-11.3 0 0 59.4-122.9 2.5-5.1 7.3-8.2 5.1-3.1 10.6-3.1 11.8 0 17.6 11.5zm-3.1 82.9l-14.8-30.1-14.5 30.1z"/>
</svg>