<svg version="1.2" xmlns="http://www.w3.org/2000/svg" viewBox="0 0 500 500" width="500" height="500">
	<title>snigdhaos-red-svg</title>
	<defs>
		<linearGradient id="g1" x2="1" gradientUnits="userSpaceOnUse" gradientTransform="matrix(-125.794,253.918,-226.97,-112.444,265.575,114.465)">
			<stop offset="0" stop-color="#ffffff"/>
			<stop offset="1" stop-color="#ffffff"/>
		</linearGradient>
		<linearGradient id="g2" x2="1" gradientUnits="userSpaceOnUse" gradientTransform="matrix(-31.039,244.867,-212.424,-26.927,315.428,181.669)">
			<stop offset="0" stop-color="#ffffff"/>
			<stop offset="1" stop-color="#ffffff"/>
		</linearGradient>
		<linearGradient id="g3" x2="1" gradientUnits="userSpaceOnUse" gradientTransform="matrix(-125.795,253.918,-308.947,-153.057,402.078,182.09)">
			<stop offset="0" stop-color="#ffffff"/>
			<stop offset="1" stop-color="#ffffff"/>
		</linearGradient>
		<linearGradient id="g4" x2="1" gradientUnits="userSpaceOnUse" gradientTransform="matrix(-158.436,255.309,-184.034,-114.205,320.445,17.926)">
			<stop offset="0" stop-color="#ffffff"/>
			<stop offset="1" stop-color="#ffffff"/>
		</linearGradient>
		<linearGradient id="g5" x2="1" gradientUnits="userSpaceOnUse" gradientTransform="matrix(2.898,146.347,-39.913,.79,89.488,258.449)">
			<stop offset="0" stop-color="#ffffff"/>
			<stop offset="1" stop-color="#ffffff"/>
		</linearGradient>
		<linearGradient id="g6" x2="1" gradientUnits="userSpaceOnUse" gradientTransform="matrix(-91.206,152.886,-100.01,-59.662,287.986,82.624)">
			<stop offset="0" stop-color="#ffffff"/>
			<stop offset="1" stop-color="#ffffff"/>
		</linearGradient>
		<linearGradient id="g7" x2="1" gradientUnits="userSpaceOnUse" gradientTransform="matrix(-125.795,253.918,-184.328,-91.319,307.599,135.284)">
			<stop offset="0" stop-color="#ffffff"/>
			<stop offset="1" stop-color="#ffffff"/>
		</linearGradient>
		<linearGradient id="g8" x2="1" gradientUnits="userSpaceOnUse" gradientTransform="matrix(-26.038,198.342,-36.521,-4.794,122.3,234.672)">
			<stop offset="0" stop-color="#ffffff"/>
			<stop offset="1" stop-color="#ffffff"/>
		</linearGradient>
	</defs>
	<style>
		.s0 { fill: url(#g1) } 
		.s1 { fill: url(#g2) } 
		.s2 { fill: url(#g3) } 
		.s3 { fill: url(#g4) } 
		.s4 { fill: url(#g5) } 
		.s5 { fill: url(#g6) } 
		.s6 { fill: url(#g7) } 
		.s7 { fill: url(#g8) } 
	</style>
	<path id="Layer" class="s0" d="m148.1 202.5c28-21.9 47.1 7.3 35 30.7l123.9-53.3c-24.2-13.3-14.3-42.2 9-46.1 0 0-100.3-36.2-167.9 68.7z"/>
	<path id="Layer" class="s1" d="m283.9 170c-50.3-4.8-173.6 57.8-25.7 159.5 0 0 15.9 0.7 17.2 19.9l6.7 52.3c0 0 20.5 49 83.4 56.9q-3.3-13.4-6.2-26.9-2.9-13.5-5.4-27.1-2.5-13.6-4.5-27.2-2.1-13.7-3.8-27.4c-1.1-9.1-39-23.8-48.3-45l63.7 8c0 0 11.8 15.2 17.7 52.3 0 0 8.6 10.6 32.5 14.5 0 0-27.2-38.4-34.1-121.8-5.2-47.6-36.5-85.3-93.2-88z"/>
	<path id="Layer" class="s2" d="m376.1 473.2c-54.9-13.9-106.2-54.3-103.2-82.1 0.9-16.9-1.5-37.6-9.1-45.7q-0.7-0.8-1.5-1.4-0.9-0.6-1.8-1-1-0.4-2-0.7-1-0.2-2-0.1c-15.4 0-21.7 20.9-24.1 33.4q-0.7 3.3-2.1 6.3-1.4 3-3.6 5.5-2.2 2.6-4.9 4.5-2.7 1.9-5.8 3.1l-33.1 12.2c-2 0.7-4.2 0.6-6.1-0.3-2-0.8-3.4-2.5-4.2-4.4-0.7-2-0.6-4.2 0.3-6.1 0.8-2 2.4-3.5 4.4-4.2l33.1-12.2q1.2-0.5 2.3-1.2 1-0.7 1.8-1.7 0.8-1 1.4-2.1 0.5-1.2 0.8-2.4c5.7-30 19.9-46.4 39.8-46.4q2.6-0.1 5.3 0.5 2.6 0.5 5 1.6 2.5 1.1 4.6 2.6 2.2 1.6 4 3.5c14.7 15.6 14 48.1 13.4 57.6-1.1 17 35.1 45.6 71.5 59.5-6.7-16.2-15.5-43.9-20.6-86.5q-0.2-2.1-0.9-4.1-0.7-2-1.8-3.8-1.1-1.8-2.5-3.4-1.4-1.6-3.1-2.8c-15.7-11.4-36.2-28.8-44.7-47.2-2.6-5.2 2-11.9 7.8-11.3l67.6 4.6c2.1 0.2 4 1.2 5.4 2.8 1.4 1.6 2.1 3.7 2 5.8-0.2 2.1-1.1 4.1-2.7 5.5-1.6 1.3-3.7 2-5.8 1.9l-51.7-3.5c9.4 11.6 22.9 22.2 31.5 28.4q3 2.2 5.5 5 2.6 2.8 4.5 6.1 1.9 3.2 3.1 6.8 1.2 3.6 1.7 7.3c8.4 69.8 26.9 97.3 27 97.6 3.8 5-0.3 12.8-6.5 12.5z"/>
	<path id="Layer" class="s3" d="m375.1 48.9l-8.5 10.3c-0.3 0.4-0.7 0.6-1.1 0.7-0.5 0.1-1 0.1-1.4-0.1-0.5-0.2-0.8-0.5-1.1-0.9-0.2-0.4-0.3-0.9-0.2-1.4l2-16q0.1-1-0.1-2-0.2-1-0.8-1.9-0.6-0.8-1.4-1.4-0.8-0.6-1.8-0.9c-47.6-13.2-112-15.5-182.3 25.6q-1.7 0.9-2.9 2.4-1.3 1.4-2.1 3.1-0.7 1.8-0.9 3.7-0.2 1.9 0.3 3.7l2.5 10.9c0.1 0.5 0 0.9-0.2 1.4-0.2 0.4-0.5 0.8-0.9 1-0.4 0.2-0.9 0.3-1.4 0.3-0.5-0.1-0.9-0.3-1.2-0.7l-8.5-8.5q-1-1-2.3-1.5-1.3-0.6-2.6-0.7-1.4-0.1-2.8 0.3-1.3 0.4-2.4 1.2c-20.9 15.4-41.9 37.3-54 55.6q-1.2 1.8-1.7 3.9-0.6 2.1-0.5 4.2 0.1 2.2 0.9 4.2 0.8 2 2.2 3.7l13.1 15.5c0.3 0.4 0.5 0.8 0.5 1.3 0.1 0.4-0.1 0.9-0.3 1.3-0.3 0.4-0.6 0.7-1.1 0.9-0.4 0.1-0.9 0.2-1.3 0l-12.6-3.3q-0.6-0.1-1.1 0-0.6 0.2-1 0.6-0.4 0.4-0.6 0.9-0.1 0.6 0 1.2l1.1 4.4q0.1 0.6-0.1 1.1-0.1 0.6-0.5 1-0.5 0.4-1 0.5-0.6 0.2-1.1 0.1l-12.4-3.2q-0.4-0.1-0.8 0-0.4 0-0.8 0.2-0.3 0.2-0.6 0.5-0.3 0.3-0.4 0.7c-10.1 26.9-14.1 54.5-14.4 80.8 12.9 16.1 42.2 18.3 49.9-3.2 30.3-133 182.4-144.2 250.4-133.4 0 0 20.4-31.8 66.9-39.7q1.4-0.3 2.4-1.2c0.7-0.7 1.2-1.5 1.4-2.4 0.2-0.9 0.1-1.9-0.3-2.7-0.3-0.9-0.9-1.6-1.7-2.2q-5.2-3.4-10.5-6.7-5.3-3.2-10.8-6.1-5.5-3-11.2-5.6-5.6-2.7-11.4-5.1-1.9-0.8-3.9-0.9-2-0.2-4 0.3-1.9 0.5-3.6 1.6-1.7 1-3 2.6z"/>
	<path id="Layer" class="s4" d="m64.5 253.6q-0.1 4 0 7.9 0 4 0.2 7.9 0.1 3.9 0.4 7.9 0.3 3.9 0.6 7.8c3.1 52.8 38.9 91.1 32.9 149.5 0 0 21.8-45.7 12-115.8q-1.2-8.5-1.5-17.2-0.3-8.6 0.1-17.2 0.5-8.6 1.8-17.1 1.3-8.6 3.4-16.9c-3.8 1.9-7.8 3.5-12 4.6q-6.2 1.6-12.6 2.1c-4.3 0.3-8.6 0.1-12.9-0.4-4.2-0.6-8.4-1.6-12.4-3.1z"/>
	<path id="Layer" class="s5" d="m345.3 148.4c0 0-84.7-30.2-159.7 24-22.7 16.5-37.1 37.6-46.2 59.1-11.3 22.9-29.1 33.6-40.4 24.3 38-150.3 180-169.3 265.8-138.8z"/>
	<path id="Layer" class="s6" d="m223.1 274.8c-42.1-22.2-18.7-76.2-2.3-88-104.9 64.7-15.6 159.1-36.7 209.6l38.4-15.9c0 0-2-39.9 35.7-51 0 0 15.9 0.7 17.2 19.9l1 7.8 7.7-7.6c0 0-12.1-49-61-74.8z"/>
	<path id="Layer" class="s7" d="m99 255.8c-12 52.2-0.6 94.8-0.6 94.8 13 66.8-7.4 108-7.4 108 40.8-27.3 33.5-96.6 27.7-112.9-5.7-16.3 6.3-25.3 6.3-25.3-0.9-18.2-0.2-54 14.5-88.9-14.1 14.7-28.1 21.6-40.5 24.3z"/>
</svg>