<svg version="1.2" xmlns="http://www.w3.org/2000/svg" viewBox="0 0 20 20" width="20" height="20">
	<title>snigdhaos-menu</title>
	<style>
		.s0 { fill: #000000 } 
	</style>
	<filter id="f0">
		<feFlood flood-color="#ffffff" flood-opacity="1" />
		<feBlend mode="normal" in2="SourceGraphic"/>
		<feComposite in2="SourceAlpha" operator="in" />
	</filter>
	<g id="Folder 1" filter="url(#f0)">
		<path id="Layer" class="s0" d="m12 0.4q-1.2-0.4-2.4-0.4-1.2 0-2.4 0.2-1.1 0.3-2.2 0.9-1.1 0.6-1.9 1.4 0.2 0.1 0.4 0.2 0.2 0.1 0.4 0.3 0.2 0.1 0.4 0.3 0.1 0.2 0.3 0.3 0.1 0.2 0.2 0.3 0 0.2 0.1 0.3 0.1 0.2 0.1 0.4 0.1 0.1 0.1 0.3 0.5-0.3 1-0.5 0.5-0.2 1.1-0.3 0.5-0.1 1-0.2 0.6-0.1 1.1-0.1 0.7 0 1.3 0.1 0.6 0.1 1.2 0.3 0.6 0.2 1.1 0.6 0.5 0.3 1 0.7c2.5 2.3 1.6 4.1 1.2 7.1q-0.1 0.5 0 1 0 0.5 0.2 1 0.2 0.5 0.5 0.9 0.4 0.4 0.8 0.7c-0.4-1.8 0.9-4.6 1.1-4.9q0.5-1.7 0.4-3.4c-0.1-1.1-0.4-2.2-1-3.2q-0.8-1.6-2.1-2.7-1.3-1.1-3-1.6z"/>
		<path id="Layer" class="s0" d="m13.4 6c-1.3-1.2-3-1.6-4.7-1.4l-0.5 0.3q0.9 0 1.8 0.3 0.9 0.3 1.6 0.8 0.8 0.5 1.4 1.2 0.6 0.7 1 1.5 0 0.1 0.1 0.2 0 0.1 0.1 0.2 0 0.1 0.1 0.2 0 0.1 0 0.2l0.6-0.9c-0.2-1.1-0.7-1.7-1.5-2.6z"/>
		<path id="Layer" class="s0" d="m13.6 9.5c-2.5-6.1-11.5-4.6-11.6 2.1 0 0.5 0 1.4 0 1.9q0 0.1 0.1 0.2 0 0 0.1 0.1 0.1 0 0.3 0 0.1 0 0.1-0.1l1.8-2q0 0 0 0 0 0 0 0 0 0 0.1 0 0 0 0 0h0.4l-0.8 1.2q0 0.1-0.1 0.1 0 0.1 0 0.2 0 0.1 0 0.2 0 0 0 0.1c0.1 0.5 0.2 1.8-0.9 2.7q-0.1 0.1-0.1 0.1-0.1 0.1-0.1 0.2-0.1 0.1-0.1 0.2 0 0.1 0 0.2v1.8q0 0.1 0 0.3 0.1 0.2 0.2 0.3 0.2 0.1 0.3 0.2 0.2 0.1 0.4 0.1c4.1-0.9 6.3-3.2 6.8-4q0-0.1 0-0.1 0.1 0 0.1 0 0 0 0 0 0 0 0.1 0h2.2q0.2 0 0.4-0.1 0.2-0.1 0.3-0.2 0.2-0.2 0.2-0.4 0.1-0.2 0.1-0.4c0-1.3 0.2-3.7-0.3-4.9z"/>
	</g>
</svg>