<svg version="1.2" xmlns="http://www.w3.org/2000/svg" viewBox="0 0 500 500" width="500" height="500">
	<title>snigdhaos-hello</title>
	<style>
		.s0 { fill: #000000 } 
		.s1 { fill: #754ffe } 
	</style>
	<filter id="f0">
		<feFlood flood-color="#754ffe" flood-opacity="1" />
		<feBlend mode="normal" in2="SourceGraphic"/>
		<feComposite in2="SourceAlpha" operator="in" />
	</filter>
	<g id="Folder 1" filter="url(#f0)">
		<path id="Layer" class="s0" d="m295.4 28.7c-14-4.4-28.5-6.9-43.1-7.4-14.7-0.4-29.3 1-43.5 4.4-14.3 3.4-28 8.7-40.8 15.7-12.9 7.1-24.6 15.8-35.1 26q4.1 1.4 8 3.3 3.9 2 7.5 4.5 3.5 2.6 6.6 5.7 3.1 3.1 5.6 6.6 1.8 2.6 3.3 5.2 1.5 2.7 2.8 5.6 1.3 2.8 2.2 5.7 1 3 1.6 6 8.7-4.8 18-8.4 9.3-3.6 18.9-6.1 9.7-2.5 19.6-3.8 9.9-1.2 19.9-1.2c7.5-0.3 15 0.3 22.5 1.5 7.4 1.2 14.7 3.2 21.7 5.9 7.1 2.6 13.9 6 20.3 10 6.4 3.9 12.4 8.6 17.9 13.8 45.2 41.4 30 74.1 22.9 128-1.1 6.1-1.3 12.4-0.7 18.6 0.6 6.2 2 12.3 4.3 18.1 2.3 5.8 5.4 11.3 9.2 16.2 3.8 5 8.2 9.4 13.3 13.1-7.2-33.3 17.5-83.8 20.4-89.4 6.3-19.8 8.7-40.6 6.9-61.3-1.8-20.6-7.6-40.7-17.2-59.1-9.7-18.4-22.8-34.7-38.8-47.9-16-13.3-34.3-23.3-54.2-29.3z"/>
		<path id="Layer" class="s0" d="m320.1 131c-22.4-22.1-54-29.5-84.5-27l-9.1 6.4c11 0.4 21.9 2.3 32.3 5.6 10.4 3.3 20.3 8.1 29.5 14.1 9.2 6 17.5 13.1 24.8 21.3 7.2 8.2 13.3 17.4 18.1 27.2q1 1.9 1.9 3.9 0.9 1.9 1.7 4 0.8 1.9 1.5 3.9 0.8 2.1 1.4 4.2l9.4-17.8c-2.4-19.5-11-29.4-27-45.8z"/>
		<path id="Layer" class="s0" d="m323.4 193.5c-43.8-110.8-207-82.9-209.7 38.3 0.2 8.3 0 25.5 0 33.8 0.1 1.3 0.5 2.5 1.3 3.7 0.8 1 1.8 1.8 3.1 2.3 1.2 0.5 2.5 0.6 3.8 0.3 1.3-0.3 2.5-1 3.4-2l31.5-35.5q0.2-0.3 0.5-0.5 0.2-0.2 0.5-0.3 0.3-0.2 0.6-0.3 0.3 0 0.7 0l6.5-0.4-13.8 22.3q-0.8 1.2-1.3 2.7-0.6 1.4-0.8 2.9-0.3 1.4-0.3 2.9 0 1.6 0.3 3c1.6 9.5 3.6 32.9-15.8 48.5q-1.4 1.1-2.6 2.5-1.1 1.4-2 3.1-0.8 1.6-1.2 3.4-0.4 1.8-0.5 3.6v32.1c0.1 2.1 0.5 4.2 1.4 6.3 0.8 2 2 3.8 3.5 5.3 1.6 1.5 3.4 2.8 5.4 3.6 1.9 0.8 4.1 1.2 6.3 1.2 73.9-14.9 115-58.2 124-72.6q0.3-0.4 0.6-0.6 0.3-0.2 0.6-0.5 0.3-0.1 0.7-0.2 0.4-0.1 0.8-0.1h39.9c2.6 0 5.1-0.6 7.5-1.5q3.6-1.5 6.3-4.3 2.8-2.7 4.2-6.3c1.1-2.3 1.6-4.9 1.6-7.4-1-24.6 3.5-66.6-7-89.3z"/>
		<path id="be silent when it is time to hea" class="s0" aria-label="be silent when it is time to hear!"  d="m71.8 449.7l0.2-0.1h0.6q0.6 0 0.8 0.1h0.2 0.6 0.8 0.1 0.1 0.5 0.1 0.1 0.1 0.1 0.1 0.1 0.1 0.2 0.9 0.1 0.4 1.1 0.3 0.1 0.3q1.3 0 1.8 0.8 0.2 0.8 0.2 0.9v0.2 0.2 0.1 0.1 0.6 0.3q-0.1 0.1-0.1 0.2h0.1v0.6-0.1h-0.1l0.1 0.9q-0.2 1.1-0.3 1.1-0.2 0.4-0.6 0.5-0.2 0.1-0.3 0.1h-0.1q0 0.1-0.2 0.1h-0.1l-0.1 0.1q0 0.1 0.1 0.1h0.3q0.3 0 0.5 0.2 0.1 0 0.4 0.4 0.4 0.4 0.4 0.7l-0.1 0.2 0.1 0.3v1.4l-0.1 0.6 0.1 0.3-0.1 0.6 0.1 0.3q0 0.6-0.7 1.2-0.4 0.2-0.7 0.3h-0.3-2.4-0.1-0.3-0.1l-3.1-0.1-0.2 0.1q-0.3 0-1.1-0.1h0.1v0.1h-0.1l-0.3-0.1-0.1 0.1-0.4-0.1-0.1 0.1v-0.1l-0.1 0.1-0.1-0.3 0.1-0.2v-3.5q0 0 0-0.1v-0.8-0.1-0.1-0.6-0.3-0.3-0.1q0-0.1 0.1-0.1l-0.1-2.1v-0.2-0.2-0.1-0.7-0.2-0.3-0.4-0.2-0.2-0.1-0.1-0.1-0.1-0.3-0.1-0.2-0.1-0.4-0.4zm6.3 3.2l-0.2 0.1v-0.1 0.1h-1.2-0.4-0.2-0.2-0.1-0.3-0.2v-0.1q-0.1 0.1-0.2 0.1v1.2q0 0.1-0.1 0.1h0.1v0.3h-0.1v-0.1h-0.1v0.1h0.1 0.1v0.1h0.1v0.1h0.1 0.1 1.2 0.1 0.8l0.5-0.1v0.1l0.1-0.1q0.1 0 0.2 0.1 0 0 0.1 0 0.1 0 0.1-0.1h-0.1v-0.1-0.4q0-0.1 0.1-0.2l-0.1-0.2 0.1-0.3-0.1-0.3q0-0.1 0.1-0.1l0.1-0.1h-0.5zm3.7 0.3h-0.1v0.3h0.1zm-6.5 4.8l-0.1-0.1q0 0.1-0.1 0.1v-0.1 0.1 0.3h-0.1q-0.1 0-0.1 0.1h0.2v0.4 0.1 0.1 0.4q0 0.2-0.2 0.2 0.2 0 0.2 0.1 0 0.1 0 0.1h0.1 0.1 0.6 0.1 0.7 0.1 0.2 0.3 0.1 0.1 0.5 0.4v0.1l0.1-0.2v-0.1l-0.1 0.1v-1.5h0.1q0 0.1 0.1 0.1l-0.1-0.2q-0.1 0-0.1-0.2-0.1 0.2-0.3 0.2v-0.1l-0.1 0.1-0.4-0.1q-0.2 0.1-0.8 0.1h-0.7l-0.5-0.1h-0.2zm7.9-7.9l0.1-0.4h1.3 0.1 0.1 0.2 0.3 0.4 0.1 0.1 0.1 0.2 1.1 0.1 2.2 0.1 0.3 0.2 0.1 0.1 0.2 0.1 0.1 0.2 0.3 0.2 0.1 0.2 0.3 1.1v0.4q-0.1 0.4-0.1 1.1v1.8h-0.2-0.6-0.8-0.1q-0.1 0-0.1 0h-0.1-0.1-0.1q-0.2 0-0.2 0h-0.1-0.1-0.5-0.3-0.3-0.1-0.1-0.2-0.3-0.1-0.1-0.1-0.1-0.2-0.5-0.4-0.7q0-0.1 0-0.1 0 0 0 0.1h-0.1-0.3l-0.1 0.1 0.3-0.1h0.1v0.2h-0.1 0.1v0.1q0 0-0.1 0 0.1 0 0.1 0.1v0.1 0.8 0.4 0.1l0.1-0.1q0.2 0 0.2 0.1 0.2-0.1 0.7-0.1h3.3 0.7v0.1 0.6l-0.1 0.5v0.2 0.3q0.1 0.4 0.1 0.9l-0.1 0.7v0.1l-0.6-0.1h-0.3-0.2-0.2-1.4-0.2-0.1-0.5-0.2-0.1-0.1-0.2-0.2-0.2-0.1-0.1q-0.1 0-0.1-0.2-0.2 0.3-0.2 0.6h0.1q-0.2 0-0.2 0h0.2v0.1l-0.1 0.1 0.1 0.1v0.3q0 0.1-0.2 0.1l0.2 0.1v0.3h-0.2 0.2v0.2q0 0 0.1 0h1.6 0.3 0.1 0.2 0.1 0.2 0.1 0.5 1.8 0.2 0.1 0.4 0.3 0.2 0.2q0.1 0 0.1 0 0.2 0 0.2 0v0.3l-0.1 0.3 0.1 0.1h-0.1 0.1l-0.1 0.2h0.1l-0.1 0.1h0.1l-0.1 0.4 0.1 0.5-0.1 0.1 0.1 0.1h-0.1l0.1 0.1h-0.1l0.1 0.1-0.1 0.4 0.1 0.3h-0.1l0.1 0.1-0.1 0.2h-0.4-0.1-0.1-0.2-0.6l-0.5-0.1-1.2 0.1-0.1-0.1q-0.1 0.1-0.3 0.1h-0.5-0.1-0.1-1.2-0.2-0.1-0.1-0.1-0.3-0.2-0.2-0.2-0.2-0.2-0.1-0.6-0.1-0.2-0.1-0.2-0.1-0.5-0.1l0.1-0.1h-0.1q0 0.1-0.3 0.1h-0.4v-0.1-0.2l0.1-0.3h-0.1l0.1-0.1v-0.3-0.3-0.1-0.1-0.5-0.2q0-0.1 0-0.1 0-0.2 0-1v-5.1q0-0.5 0.1-1.4l-0.1-0.1h0.1l-0.1-0.1h0.1q-0.1-0.2-0.1-0.3v-0.2 0.1-0.1q0-0.1 0-0.1v-0.1-0.1-0.1-0.2-0.7-0.6 0.1h-0.1zm0.1 0.4v0.1q0.1-0.7 0.1-0.7 0.1 0 0.2 0.6h0.1q-0.2-0.6-0.2-0.6h-0.1q0 0-0.1 0.6zm0.4 0.2zm0 0.1v0.1 0.1-0.1zm21.8-1h0.1 0.5 0.7 0.1 0.6 1.1 1.9 0.1 1.7 0.7l0.7 0.1v2.9l-0.1 0.2 0.1 0.1h-0.1-1.1-0.1-0.1-0.1-0.3-0.1-0.1-0.2-2.7-0.1-1.1-0.1-0.2l-0.1-0.1q0 0-0.1 0.1v0.1 0.3 0.1 0.1q-0.3 0-0.3 0.1 0.3 0.1 0.3 0.1v0.6 0.1l-0.1 0.2 0.1 0.2v-0.1-0.1l0.1 0.1q0.1-0.1 0.2-0.1h2.1l1.2 0.1q0 0 0 0v-0.1h0.1 0.3 0.9 0.1 0.1q0.3 0 0.8 0.3 0 0.1 0.2 0.2 0.5 0.4 0.5 1.2h-0.1 0.1v0.1h-0.1 0.1v0.1l-0.1 0.2h0.1v0.1h-0.1 0.1l-0.1 0.2 0.1 1.2v1.2l-0.1 0.2 0.1 0.1-0.1 0.4v0.2 0.1 0.1 0.1 0.1 0.4 0.3q0 0.8-0.6 1.3-0.3 0.2-1.1 0.2h-2.5-0.3-0.1-1.4-0.3-0.1-0.1-0.2-0.3-0.1q-0.2 0-0.8 0h-1.8-0.1v-0.1-2.7-0.5h0.1 0.3 0.6 0.2 0.1 0.4 0.1 0.1l0.3 0.1q0.2 0 0.5 0h-0.1 1.7 0.8 0.2 0.6 0.5q0 0 0 0.1 0-0.1 0.1-0.1h0.1 0.1v-0.1-0.2-0.7-0.3-0.2-0.1-0.1-0.1h-0.1-0.2q0-0.1 0-0.1 0 0-0.1 0.1-0.5-0.1-0.9-0.1h-0.1-0.1-0.3-0.2l-0.6 0.1v-0.1l-0.1 0.1h-0.6-0.3-0.2-0.2-0.9q-0.8 0-0.8-0.2 0-0.1-0.3-0.1-0.3 0-0.6-0.7v-0.1q0.1 0 0.4 0.6l-0.4-0.7q-0.1-0.2-0.1-0.3 0-0.1 0.1-0.1l-0.1-0.1v-1l0.1-0.2h-0.1v-0.1h0.1v-1.4-0.4q0-0.2-0.1-0.2v-0.2-1.2-0.1-0.1-0.1-0.1-0.1q0-0.2 0.2-0.6 0.5-0.8 1.3-0.8h0.1 0.1zm10 0h0.2 0.3 0.2 0.8 0.1 0.2l0.1 0.1v-0.1l0.2 0.1v-0.1 0.1h0.5v-0.1 0.1h0.4q0 0.8-0.1 1.6v0.1 0.1-0.1 0.1 0.4 0.2 0.2q0 0.1 0 0.1v1.4 0.2 0.1 2 0.1 0.2 0.1 0.1 0.1 0.3 0.2q0 0 0 0.2v0.4 0.7 0.6 0.8q0 0.4 0 0.4v0.1 1 0.3 0.2 1.3 0.2q0 0.2 0 0.4v0.3q0 0.1 0 0.1 0 0 0 0.5v0.3 0.1 0.2 0.1 0.2 0.2 0.1 0.2 0.3q-0.1 0-1.1-1.1-1.3-1.3-1.3-1.4l-0.3-0.4 0.1 0.1v0.1q-0.6-0.5-0.6-0.7v-0.1-0.1l0.1 0.1v-0.1q-0.1-0.1-0.1-0.2v-0.2l-0.1-0.3 0.1-0.1-0.1-0.1 0.1-0.6v-0.1l-0.1-0.5 0.1-0.6v-0.4l-0.1-0.4h0.1-0.1l0.1-0.1-0.1-0.2 0.1-0.1-0.1-0.3v-0.4-0.4-0.2-0.1l0.1-0.7v-1.8-0.3-0.1-2.1-0.4-0.1-0.7-0.2-0.5l0.1-0.1q0 0 0 0 0-0.2-0.1-0.2l0.1-0.1v-0.5l-0.1-0.1h0.1q0 0 0 0.1h0.1v-0.1h-0.1zm2.9 2.5zm-2.9 11.1zm4.8-13.4h3.1v0.3 0.8 5.5 1.1 0.1 0.1 0.1 0.1 0.7 0.5 0.1 0.1 0.3h0.3l0.1 0.1q0 0 0-0.1h0.3 0.2l0.1-0.1 0.1 0.1v-0.1 0.1l0.1-0.1 0.2 0.1v-0.1l0.3 0.1 0.2-0.1 0.2 0.1v-0.1l0.1 0.1 1.4-0.1h0.4l0.2 0.1 0.2-0.1 0.1 0.1 0.1-0.1 0.2 0.1v-0.1l0.1 0.1 0.3-0.1 0.1 0.1v-0.1 0.1h0.1v-0.1l0.3 0.1 0.1-0.1 0.1 0.1 0.1-0.1 0.1 0.1 0.3-0.1h0.6l0.2 0.1v0.4 1.1 1.3 0.1 0.1 0.1 0.1 0.1 0.1 0.1h-2.7-0.1-0.1-1.1-0.1-0.1-0.1-0.9q-0.5-0.1-1.1-0.1h-0.3-0.2-0.4-0.4-0.1l-0.1 0.1-0.1-0.1q-0.8 0.1-1.4 0.1h-0.6-0.9l0.1-0.5-0.1-0.4 0.1-0.5v-0.3-0.1-0.1-0.2-0.1-0.4-0.5-1.7-0.5-0.1-0.2-1q0-1.5 0-2.3v-0.2l-0.1-1.1 0.1-0.1-0.1-0.1h0.1l-0.1-0.2v-2.7q0 0 0.5 0zm11.7 0.4v-0.4h1.3 0.1 0.1 0.2 0.3 0.4 0.1 0.1 0.1 0.1 0.1 1.2 2.2 0.1 0.3 0.2 0.1 0.2 0.2 0.1 0.3 0.2 0.2 0.1 0.2 0.4 1v0.4q-0.1 0.4-0.1 1.1v1.8h-0.2-0.6-0.8q-0.2 0-0.2 0h-0.1-0.1-0.1q-0.2 0-0.2 0h-0.1-0.1-0.5-0.2-0.1-0.3-0.1-0.1-0.1-0.1-0.3-0.1-0.1-0.1-0.1-0.2-0.5-0.3-0.7q0-0.1-0.1-0.1 0 0 0 0.1h-0.4v0.1l0.2-0.1h0.1v0.2 0.1q0 0-0.1 0 0.1 0 0.1 0.1v0.1 0.8 0.4 0.1h0.1v-0.1q0.2 0 0.2 0.1 0.3-0.1 0.7-0.1v0.1l0.1-0.1 3.2 0.1h0.7v0.6l-0.1 0.5 0.1 0.2-0.1 0.3q0.1 0.4 0.1 0.9v0.7h-0.1v0.1l-0.6-0.1h-0.3-0.1-0.2-1.5-0.2-0.1-0.5-0.2-0.1-0.1-0.2-0.2-0.2-0.1-0.1q0 0 0-0.2-0.2 0.3-0.2 0.6-0.1 0-0.1 0h0.1v0.1 0.1 0.1 0.3q0 0.1-0.2 0.1l0.2 0.1v0.3h-0.2 0.2v0.2q0 0 0.1 0.1h0.1l-0.1-0.1h1.6 0.3 0.1 0.2 0.1 0.1 0.1 0.1 0.1 0.4 1.9 0.1 0.1 0.4 0.3 0.3 0.1q0.2 0 0.2 0 0.1 0 0.1 0.1v0.2 0.3 0.1 0.2 0.1 0.4 0.5 0.1 0.1 0.1 0.1 0.4 0.3 0.1 0.2h-0.5-0.1-0.3-0.5l-0.6-0.1-1.1 0.1h-0.1l-0.1-0.1q-0.1 0.1-0.3 0.1h-0.5-0.1-0.1-1.1-0.3-0.2-0.1-0.2-0.2-0.3-0.2-0.2-0.2-0.1-0.6-0.1-0.2-0.1-0.2-0.1-0.5v-0.1h-0.1q0 0.1-0.3 0.1h-0.3v-0.1l-0.1-0.2 0.1-0.3v-0.1-0.3-0.3-0.1-0.6-0.2q0-0.1 0-0.1 0-0.2 0-1v-5.1q0-0.5 0.1-1.4l-0.1-0.1h0.1l-0.1-0.1h0.1q-0.1-0.2-0.1-0.3v-0.1-0.1q0-0.1 0-0.1v-0.1-0.1-0.1-0.2-0.7-0.6 0.1zm0 0.4v0.1q0.1-0.7 0.2-0.7 0 0 0.2 0.6-0.1-0.6-0.2-0.6-0.1 0-0.2 0.6zm0.4 0.2zm0 0.1v0.1 0.1h0.1v-0.1zm20.5 8.8v0.1zm0.1 1.1v0.2zm0-0.3l-0.1 0.1 0.1 0.1zm0-0.3h-0.1v0.2h0.1zm0 2.9q0.1 0.3 0.1 0.9v0.3 0.4 0.2 0.2 0.1l-0.1 0.3v1q-0.7-0.6-0.7-0.8-1.9-1.9-1.9-2.1l-0.5-0.4q0-0.4 0-1.3v-0.1-0.1-0.2-0.2-0.1-0.1-0.2-0.3q0-0.7 0.1-1.7v-0.1q0-0.3 0-0.7-0.1 0-0.1 0.3v-1.7q0-2.1 0-3.2 0.2 0 0.4 0v-0.1h-0.1l-0.3 0.1v-0.2q0-0.2 0.1-0.2l-0.1-0.1q0 0.1-0.1 0.1h-0.2v-0.1l-0.1-0.3h0.1-0.1q0 0 0 0.2v0.1l-0.1 0.1h-0.7-0.3-0.4-0.6l-0.1-0.1q-0.1 0.1-0.3 0.1h-0.1-0.1-0.1-0.1-0.1q-0.1 0.1-0.1 0.5v0.5 0.1 0.1 0.3 0.6q0 1 0 1.6v0.4 1.6 2.2 2.1h-0.1-0.5-0.1-0.6-1.4-0.3-0.1-0.2v-0.1-0.1-4.4l0.1-0.1-0.1-0.1 0.1-0.1-0.1-0.1 0.1-0.2h-0.1l0.1-0.5v-2.7-0.2-0.1-0.1-0.4-0.1-0.1-0.2-0.1-0.3-0.1-0.4-1.2-0.2-0.7-0.8q0-0.2 0-0.8v-0.3-0.3-0.3-0.2-0.1-0.3-0.9h0.1q0.6 0.6 0.7 0.7 1.9 2 1.9 2.1l0.4 0.4h0.3l0.1 0.1v-0.1l0.4 0.1h1.8 0.4 0.2 0.5 0.4 0.1 0.9 0.1l0.4 0.1h0.1 0.1q0.6 0 0.9 0.5l0.2 1.1v0.7 0.2 0.7 0.7 0.9 0.4l-0.1 2.1v2.4 0.2q0 1.4-0.1 1.4v0.2 0.1q0 0.1 0 0.4v0.1 0.3 0.3 0.5zm2.2-13.4h0.2 0.1 0.3 3.3 1.2 0.3 0.1 0.2 0.4 0.4v0.1q-0.4 0-0.4 0.1h0.3q2.3-0.2 2.9-0.2v0.2 0.5 0.8 0.3 0.5 1q0 0-0.1 0h-0.1-0.2-0.1-0.4-0.7-0.1-0.4-0.3-0.3-0.2-0.1-0.1-0.1-0.1-0.1v0.1q0 0.1-0.1 0.1 0 0 0.1 0v0.1 0.1 0.2 0.2 0.7 0.2 0.9 0.1 0.5 4.3 3.3 0.3 0.1 1.7 0.1 0.2 0.1q-0.4-0.4-1.6-1.7-0.1 0-1.3-1.2-0.3-0.3-0.3-0.3v-0.1q-0.1 0-0.1-0.3v-0.1-0.1q0-0.1 0.1-0.1l-0.1-0.9v-0.4l0.1-0.2-0.1-0.1v-0.4l0.1-0.3h-0.1l0.1-0.1h-0.1l0.1-0.2-0.1-0.2 0.1-0.4-0.1-0.5 0.1-0.2h-0.1l0.1-0.1-0.1-0.3q0.1-0.9 0.1-1v-0.2-0.1q0 0-0.1 0v-0.2q0-0.4 0.1-0.4-0.1 0-0.1-0.5 0-0.1 0-0.3v-0.9l0.1-0.3h-0.1l0.1-0.1-0.1-0.1 0.1-0.2h-0.1 0.1l-0.1-0.1 0.1-0.5v-0.1h0.1v-0.1q-0.1 0-0.1 0h-0.1-0.1-0.2-0.3-0.2-0.7-0.6-0.1-0.1-0.1-0.1-0.4-0.3v-0.1-1.4-1.6q0-0.2 0.1-0.2zm33.4 0h0.5 0.1 0.4 0.2 0.2 0.1 0.1 1.7v0.1q0 0-0.2 0.1l0.2-0.1v4.1 0.2 0.1 0.1 0.3 0.1 0.1 0.2 0.3 0.2 0.5 0.2 0.2 0.9 0.3 0.3 0.1 0.5 0.5 0.3 0.1 0.2q0 0.6-0.2 1.9 0.1 0 0.1 0 0 0.7-0.3 1-0.4 0.5-1.4 0.5h-0.1-0.1-0.1-0.1-0.3-1.1l-0.9-0.1-1.1 0.1-0.1-0.1-0.1 0.1q-0.8 0-1.9-0.2-0.6-0.7-0.6-1.3v-0.1h-0.1v0.1q0 0.5-0.2 0.8 0 0.1-1 0.6 0 0.1-0.2 0.1h-0.5-1.4-1.7-0.1-0.7-1.1q-0.2 0-0.6-0.1v-0.1q0-0.1-0.2-0.1-0.6-0.5-0.6-1.1v-0.1l-0.1-0.1v-0.1l0.1-0.1-0.1-0.2 0.1-0.1h-0.1l0.1-0.1v-3-1.3-0.1-0.1-0.1-0.3-0.1-0.1-0.1-0.2-0.6-0.8-0.4-0.4-1.6-1.7-0.2h0.3q0 0 0 0.1l1.6-0.1h0.5 0.2 0.1 0.1q0.2 0 0.3 0.1v-0.1h0.1v0.1 0.7 0.3 0.4 0.1 0.1 0.1 0.3 0.1 0.2 0.1 0.1 0.3 0.1q0 0.1 0 0.1v0.1 1.9 0.5 0.2 0.1 0.2 0.2 0.1 0.1 0.9-0.3 0.4q0 0 0 0.1v2.2 0.3h0.2 1.5l0.2-0.1 0.2 0.1h0.1l0.7-0.1v0.1l0.1-0.1q0.1 0 0.2 0.1h0.2l0.1-0.1q-0.1 0-0.1-0.2v-0.1-0.1-0.2-0.1-0.2-0.1-0.2-0.1-0.1-0.7-0.2-0.1-2.2-0.5-0.1-0.1-0.1-0.9-2.6-0.3-0.1-0.2-0.2-0.1-0.2h0.1 0.7 0.2l1.1 0.1q0.1-0.1 0.1-0.1h0.6 0.6v0.4 0.9 2 2.2 1.8 0.6 0.2 1.1 0.1 0.1q-0.1 0-0.1 0.1h0.1v0.3 0.2 0.1l0.1-0.1h0.1l0.1 0.1q0-0.1 0-0.1h0.2l0.2 0.1 0.1-0.1v0.1-0.1l0.4 0.1 0.2-0.1 0.1 0.1v-0.1l0.1 0.1 0.3-0.1h0.9q0 0 0 0.3h0.1v-0.2q0-0.1 0.1-0.1h0.1q0.1 0 0.1 0.1l0.1 0.5v-0.1l-0.1-0.5h0.2 0.1q0 0-0.1 0 0-0.1-0.1-0.1v-0.1-0.3-0.1-0.2-0.1-0.1-0.1-0.3-0.1-0.1-0.1-0.3-0.3-0.1-0.1q0-0.2 0.1-0.2l-0.1-0.1v-0.1-0.1-0.1-0.1-0.2-0.1-0.1-0.1-0.1-0.2-1.9-0.3-0.1-1.4-0.3-0.6-0.1-0.1-0.2-0.3-0.1-0.5q0-0.1 0.1-0.1zm2.9 0.2h-0.1 0.1zm-13.1 6.4v0.4-0.4zm0 0.4h-0.1v0.1h0.1zm24.7-6.5v0.1 0.1-0.1zm-2.4 8.4h-0.1l0.1 0.1v-0.1zm2.4-7.5v-0.1 0.1zm0-0.6v0.1zm0.1 11.1v4.3l-0.1 0.3q-0.2-0.2-0.8-0.8-0.2-0.1-1.9-1.8-0.4-0.3-0.5-0.6-0.1-0.1-0.1-0.1v-0.2-0.2-0.2-0.2h0.1-0.1l0.1-0.6-0.1-0.4h0.1l-0.1-0.1 0.1-0.2v-0.5-0.6l0.1-1q-0.1 0-0.1 0.1v-0.1q0-0.2 0-0.2 0.2 0 0.2 0h-0.2v-0.1h0.3v0.1q0.1 0 0.1-0.1h-0.4v-0.1l0.1-0.2v-0.1l-0.1 0.1q0-0.1-0.1-0.2v0.2h-0.1-0.1-0.2-2.5l-0.1-0.1q0 0.1-0.1 0.1-0.1 0-0.1-0.1 0 0-0.1 0 0 0 0 0h-0.1v0.3 0.3h-0.1q0 0 0.1 0.1v0.2h0.1v0.1h-0.1q0 0.5 0.1 0.7h-0.1l0.1 0.1v0.2l-0.1 0.8 0.1 0.2-0.1 0.1h0.1l-0.1 0.2 0.1 0.3v0.6l-0.1 0.1h0.1v0.1h-0.1l0.1 0.1v0.1l-0.1 0.3q-0.6 0.1-1.1 0.1h-0.8-0.1-1.2v-0.1-0.5-0.1-0.1-0.7-1.8q0-0.3 0.1-1.4-0.1 0-0.1 0.4v-0.5l-0.1-0.1h0.1v-0.1h-0.1l0.1-0.1-0.1-0.4v-0.1l0.1-0.2h-0.1l0.1-0.1h-0.1 0.1v-0.2l-0.1-0.1h0.1l-0.1-0.2 0.1-0.3-0.1-0.2h0.1-0.1l0.1-0.2v-0.7-0.1l0.1-2.7v-0.2-0.5h-0.1l0.1-1.2q0-0.5-0.1-0.7v-2.8-0.3h0.1q0.2 0.1 0.8 0.7 0.1 0.1 1.9 1.9 0.4 0.3 0.5 0.5 0 1.3-0.1 3.5v1l-0.1 0.1q0 0 0.1 0.1 0 0.2 0 0.3h0.2q0.2 0 0.6 0h0.2 0.1-0.1 0.2-0.1 0.2 1.5 0.2v0.1q0.1 0 0.1-0.1h0.3 0.1 0.1q-0.1 0-0.1-0.1v-0.2h0.1-0.1v-0.4-1.5-0.2-0.1-0.1-0.5-0.1-0.1-0.1-0.2-0.4-0.8-0.1q0-0.1 0.3-0.1h2.6 0.1q0.2 0 0.2 0v0.1 0.1-0.2h0.1v0.5 0.2 0.4 0.1 0.3 1.3q0 0.1-0.1 0.1v0.2 0.1 0.2l0.1 0.1h-0.1v1.1 0.6 0.5 0.1q0.1 0 0.1 0.4v0.1 0.3 0.1 0.1 2.3 1.5l-0.1 0.2 0.1 0.2v0.3l-0.1 0.2 0.1 0.1h-0.1zm1.4-11.4l0.1-0.4h1.3 0.1 0.1 0.2 0.3 0.4 0.1 0.1 0.1 0.2 1.1 0.1 2.2 0.1 0.3 0.2 0.1 0.1 0.2 0.1 0.1 0.2 0.3 0.2 0.1 0.2 0.3 1.1v0.4q-0.1 0.4-0.1 1.1v1.8h-0.2-0.6-0.8-0.1q-0.1 0-0.1 0h-0.1-0.1-0.1q-0.2 0-0.2 0h-0.1-0.1-0.5-0.3-0.3-0.1-0.1-0.2-0.3-0.1-0.1-0.2-0.2l-0.5-0.1-0.4 0.1h-0.7q0-0.1 0-0.1 0 0 0 0l-0.1 0.1h-0.3-0.1 0.3 0.1v0.2h-0.1 0.1v0.1q0 0-0.1 0 0.1 0 0.1 0.1v0.9 0.4 0.1l0.1-0.1q0.2 0 0.2 0.1 0.2-0.1 0.7-0.1h3.3 0.7v0.1 0.6l-0.1 0.5v0.2 0.3q0.1 0.4 0.1 0.9l-0.1 0.7h-0.7-0.2-0.2-0.2-1.4-0.2-0.1-0.5-0.2-0.1-0.1-0.2-0.2l-0.2-0.1v0.1h-0.1-0.1q-0.1 0-0.1-0.2-0.2 0.3-0.2 0.5l0.1 0.1q-0.2 0-0.2 0h0.2v0.1l-0.1 0.1 0.1 0.1v0.3q0 0-0.2 0.1l0.2 0.1v0.2l-0.2 0.1h0.2v0.2q0 0 0.1 0h1.6 0.3 0.1 0.2 0.1 0.2 0.1 0.5 1.8 0.2 0.1 0.4 0.3 0.2 0.2q0.1 0 0.1 0 0.2 0 0.2 0v0.3l-0.1 0.3h0.1-0.1l0.1 0.1-0.1 0.2h0.1-0.1l0.1 0.1-0.1 0.4 0.1 0.5-0.1 0.1 0.1 0.1h-0.1l0.1 0.1h-0.1l0.1 0.1-0.1 0.4 0.1 0.3h-0.1l0.1 0.1-0.1 0.2h-0.4-0.1-0.1-0.2-0.6l-0.5-0.1h-1.2v0.1l-0.1-0.1q-0.1 0.1-0.3 0.1h-0.5l-0.1-0.1-0.1 0.1h-1.2-0.2-0.1-0.1-0.1-0.3-0.2-0.2-0.2-0.2-0.2-0.1-0.6-0.1-0.2-0.1-0.2-0.1-0.5l-0.1-0.1v-0.1q0 0.2-0.3 0.2h-0.4v-0.1-0.2l0.1-0.3h-0.1l0.1-0.1v-0.3-0.3-0.1-0.1-0.5-0.2q0-0.1 0-0.1 0-0.3 0-1v-5.1q0-0.5 0.1-1.4l-0.1-0.1 0.1-0.1h-0.1 0.1q-0.1-0.2-0.1-0.4v-0.1 0.1-0.1q0-0.1 0-0.1v-0.1-0.1-0.1-0.2-0.8-0.5 0.1h-0.1zm0.1 0.4v0.1q0.1-0.7 0.1-0.7 0.1 0 0.2 0.6h0.1q-0.2-0.6-0.2-0.6h-0.1q0 0-0.1 0.6zm0.4 0.1v0.1zm0 0.1v0.1zm20.6 8.8v0.1zm0.1 1h-0.1v0.1l0.1 0.1zm0-0.2h-0.1v0.1h0.1zm-0.1-0.2v0.1zm0.1 3q0 0.3 0 0.9v0.3l0.1 0.3-0.1 0.3 0.1 0.2-0.1 0.1h0.1l-0.1 0.3v1q-0.7-0.7-0.7-0.8-2-2-2-2.1l-0.4-0.5q0-0.4-0.1-1.2l0.1-0.1h-0.1l0.1-0.2-0.1-0.1 0.1-0.1-0.1-0.1v-0.2h0.1l-0.1-0.2v-0.3q0-0.7 0.2-1.7l-0.1-0.1q0-0.4 0.1-0.7-0.1 0-0.1 0.3h-0.1v-1.7q0-2.1 0.1-3.2 0.2-0.1 0.4-0.1h-0.2-0.2v-0.2q0-0.1 0-0.1v-0.1q-0.1 0.1-0.1 0.1h-0.3v-0.1-0.3q-0.1 0-0.1 0.2v0.1 0.1h-0.7-0.4-0.3-0.7v-0.1q-0.1 0.1-0.3 0.1h-0.1l-0.1-0.1-0.2 0.1-0.1-0.1q-0.1 0.2-0.1 0.6v0.5 0.1 0.1 0.3 0.6q0 1 0 1.6v0.4 1.6 2.2 2.1h-0.1-0.5-0.1-0.6-1.4-0.4l-0.3-0.1h0.1v-0.1-4.4-0.1-0.1-0.1-0.2-0.1-0.5-2.7h0.1-0.1v-0.1l0.1-0.2h-0.1l0.1-0.1h-0.1 0.1v-0.4h-0.1 0.1l-0.1-0.1 0.1-0.1-0.1-0.1 0.1-0.1v-0.1-0.3-0.1-0.4-1.2-0.2-0.7-0.8q0-0.2 0-0.8v-0.3-0.3-0.3-0.2-0.1-0.3-1h0.1q0.6 0.7 0.7 0.8 1.9 2 1.9 2.1l0.4 0.4h0.3l0.1 0.1v-0.1l0.3 0.1h1.9 0.4 0.1 0.1 0.4 0.4 0.1 0.1 0.9 0.1l0.3 0.1h0.1l0.2-0.1q0.6 0.1 0.9 0.6l0.2 1.1v0.7 0.2 0.7 0.7 0.9l-0.1 0.3h0.1l-0.1 0.1v2 0.1 2.4 0.2q-0.1 1.3-0.1 1.3v0.3 0.1q0 0 0 0.3v0.2 0.3 0.3 0.5zm11.3-13.5h0.1l0.4 0.1v-0.1l0.1 0.1h0.8 0.2 0.1 0.1 0.1 0.1 0.5 0.1 0.3q0 0.8-0.1 1.6l0.1 0.1-0.1 0.1h0.1v0.4 0.2 0.1 0.1q0 0.2-0.1 0.2l0.1 1.4v0.1 0.2l-0.1 2h0.1l-0.1 0.2v0.1l0.1 0.1-0.1 0.1v0.4 0.1q0.1 0.1 0.1 0.3v0.4 0.6 0.7 0.7q0 0.4-0.1 0.4l0.1 0.1v1 0.4 0.2 1.2 0.3q0 0.1 0 0.4v0.2 0.1q0 0-0.1 0 0.1 0 0.1 0.5v0.1 0.3 0.1 0.1 0.1 0.2 0.2 0.1 0.1 0.1 0.1 0.2q-0.1 0-1.1-1.1-1.4-1.3-1.4-1.4l-0.3-0.4 0.1 0.2q-0.6-0.5-0.6-0.7v-0.2l0.1 0.1q-0.1-0.1-0.1-0.2v-0.3-0.3-0.1-0.6-0.2-0.5-0.6-0.3-0.4-0.1-0.1-0.2-0.1-0.3-0.3-0.5-0.1-0.1-0.1l0.1-0.6-0.1-1.9v-0.2-0.1-0.1-2-0.5l0.1-0.8v-0.2-0.5-0.1q0 0.1 0.1 0.1-0.1-0.3-0.1-0.3v-0.1-0.4-0.2q0.1 0 0.1 0.1v-0.1zm2.9 2.5v0.1zm-3 11v0.1h0.1zm4.9-13.5h0.1 0.1 0.1 0.2 3.4 1.2l0.3 0.1v-0.1l0.1 0.1 0.2-0.1 0.4 0.1 0.4-0.1v0.1q-0.4 0-0.4 0.1h0.2q2.3-0.1 2.9-0.1l0.1 0.1v0.5 0.8l-0.1 0.3h0.1l-0.1 0.5v1q0 0.1 0 0.1h-0.1v-0.1l-0.2 0.1h-0.1l-0.5-0.1h-0.6-0.1-0.4-0.3-0.3-0.2-0.1-0.1-0.1-0.1-0.1v0.1q0 0.1-0.1 0.1 0 0 0.1 0v0.1 0.1 0.2 0.2 0.7 0.2 0.9 0.1 0.5 4.3 3.3 0.3 0.1 0.1 1.7 0.1 0.1 0.1q-0.4-0.4-1.6-1.6-0.1 0-1.3-1.3-0.3-0.3-0.3-0.3v-0.1q-0.1 0-0.1-0.2v-0.1-0.2q0-0.1 0.1-0.1l-0.1-0.9v-0.4l0.1-0.1-0.1-0.2v-0.3l0.1-0.4h-0.1 0.1l-0.1-0.1 0.1-0.1-0.1-0.2 0.1-0.4-0.1-0.6 0.1-0.1-0.1-0.1 0.1-0.1-0.1-0.2q0.1-0.9 0.1-1v-0.1-0.1-0.2q0 0-0.1 0v-0.2q0-0.4 0.1-0.4-0.1 0-0.1-0.4 0-0.1 0-0.4v-0.8l0.1-0.3-0.1-0.1h0.1l-0.1-0.2 0.1-0.1-0.1-0.1h0.1l-0.1-0.1 0.1-0.5v-0.1h0.1q-0.1 0-0.1-0.1h-0.1l-0.1 0.1-0.2-0.1v0.1l-0.3-0.1h-0.2-0.7-0.6-0.1-0.1-0.1-0.1-0.4-0.3v-1.5-1.6q0-0.2 0.1-0.2zm20.3 0h0.2 0.3 0.2 0.8 0.1 0.2 0.1 0.1 0.1 0.5 0.1 0.3q0 0.8-0.1 1.7v0.1 0.1-0.1h0.1l-0.1 0.5v0.2 0.2q0 0.1 0 0.1v1.4 0.2l0.1 0.1-0.1 2v0.3 0.1 0.2 0.3 0.1q0 0.1 0 0.3v0.4 0.6 0.7 0.8q0 0.4 0 0.4v0.1 0.9 0.4 0.2 1.3 0.2q0.1 0.1 0.1 0.4l-0.1 0.3h0.1q-0.1 0.1-0.1 0.1 0 0 0.1 0.5h-0.1 0.1v0.3l-0.1 0.1 0.1 0.1v0.2l-0.1 0.1 0.1 0.2h-0.1v0.1l0.1 0.1-0.1 0.1 0.1 0.1-0.1 0.3q-0.1 0-1.1-1.1-1.3-1.4-1.3-1.4l-0.3-0.5v0.1l0.1 0.1v0.1q-0.6-0.6-0.6-0.7v-0.1-0.1h0.1q-0.1-0.1-0.1-0.2v-0.2-0.3-0.1-0.1-0.6-0.1-0.6-0.5-0.4-0.4-0.1-0.2-0.1-0.3-0.4l-0.1-0.4 0.1-0.2-0.1-0.1h0.1-0.1l0.2-0.7-0.1-1.8v-0.3-0.1-0.1-2-0.4-0.1l0.1-0.7v-0.1h-0.1l0.1-0.2v-0.4-0.2q0 0.1 0 0.1 0-0.2 0-0.2v-0.1-0.5-0.1q0 0 0 0h0.1zm2.9 2.4h-0.1v0.1h0.1zm-3 11v0.1zm6.1-13.4l0.1-0.1 0.5 0.1h0.7 0.1 0.6 1.1 1.9 0.1 1.7 0.6 0.8v3l-0.1 0.1 0.1 0.1-0.1 0.1h-1.2v-0.1l-0.1 0.1-0.1-0.1v0.1h-0.1l-0.2-0.1-0.1 0.1v-0.1l-0.1 0.1-0.2-0.1-2.7 0.1h-0.1-1.1l-0.2-0.1h-0.1-0.1q0 0-0.1 0l-0.1 0.2 0.1 0.3h-0.1 0.1v0.1l-0.1 0.1q-0.2 0-0.2 0v0.1q0.3 0 0.3 0v0.6l-0.1 0.1 0.1 0.1-0.1 0.2 0.1 0.1v-0.1h0.1q0.1 0 0.2 0h2.1l1.2 0.1q0-0.1 0-0.1h0.1 0.2 0.1 0.9 0.1 0.1q0.3 0 0.8 0.3 0 0.1 0.2 0.2 0.5 0.4 0.5 1.1h-0.1l0.1 0.1-0.1 0.1h0.1v0.1l-0.1 0.1 0.1 0.1h-0.1l0.1 0.1-0.1 0.2 0.1 1.2v1.2l-0.1 0.2h0.1l-0.1 0.5v0.2 0.1 0.1 0.2 0.4 0.2q0 0.9-0.7 1.4-0.3 0.2-1 0.2h-2.5-0.3-0.1-1.4-0.3-0.1l-0.1-0.1-0.2 0.1h-0.3-0.1q-0.3 0-0.8 0h-1.9v-0.1-2.8-0.4h0.1 0.3 0.6 0.2 0.1 0.4 0.1 0.1l0.3 0.1q0.2-0.1 0.5-0.1l-0.1 0.1 1.7-0.1h0.8 0.2 0.5 0.6q0 0 0 0.1 0-0.1 0.1-0.1h0.1 0.1-0.1l0.1-0.3v-0.7-0.2l-0.1-0.3 0.1-0.1-0.1-0.1 0.1-0.1h-0.1-0.2q0-0.1 0-0.1-0.1 0-0.1 0.1-0.5-0.1-0.9-0.1l-0.1 0.1-0.1-0.1h-0.3l-0.2 0.1h-0.1-0.5-0.1-0.6-0.3-0.2-0.1-0.1-0.9q-0.8 0-0.8-0.1 0-0.1-0.3-0.2-0.3 0-0.6-0.6v-0.1q0 0 0.4 0.5l-0.4-0.7q-0.1-0.1-0.1-0.3 0-0.1 0-0.1v-1.1-0.2-0.1l0.1-1.4v-0.4q0-0.1-0.1-0.1v-0.3-1.1-0.1-0.1-0.1-0.1-0.1q0-0.2 0.2-0.7 0.5-0.7 1.3-0.7h0.1 0.1zm19.4 0h0.2 0.1 0.3 3.4 1.2 0.3 0.3 0.4 0.4v0.1h-0.1q-0.4 0-0.4 0.1h0.3q2.3-0.2 2.9-0.2l0.1 0.2v0.5 0.8l-0.1 0.3h0.1l-0.1 0.5v1q0 0-0.1 0h-0.2-0.1-0.5-0.6-0.1-0.5-0.2-0.3-0.1-0.1-0.1-0.1-0.1-0.1-0.1v0.1q0 0.1-0.1 0.1 0 0 0.1 0v0.1 0.1 0.2 0.2 0.7 0.2 0.9 0.1 0.5 4.3 3.3 0.3 0.1 1.7 0.1 0.2 0.1q-0.4-0.4-1.6-1.7-0.1 0-1.3-1.2-0.3-0.3-0.3-0.3v-0.1q-0.1 0-0.1-0.3v-0.1-0.1q0-0.1 0-0.1v-0.9-0.4-0.2-0.1-0.4-0.3-0.1-0.2-0.2-0.4-0.5-0.2-0.1-0.3q0-0.9 0.1-1v-0.2-0.1q0 0-0.1 0v-0.2q0-0.4 0.1-0.4-0.1 0-0.1-0.5 0-0.1 0-0.3v-0.9-0.3-0.1-0.1-0.2-0.1l0.1-0.5v-0.1h0.1v-0.1q-0.1 0-0.1 0h-0.1-0.1-0.2-0.4-0.1-0.7-0.6-0.1-0.2-0.1-0.4-0.3v-0.1-1.4-1.6q0-0.2 0-0.2zm11.1 0l0.2-0.1 0.3 0.1h0.2 0.8 0.1 0.2 0.1 0.1 0.1 0.5 0.1 0.3q0 0.8-0.1 1.7v0.1h0.1v0.4 0.2l-0.1 0.1h0.1v0.2q0 0.1-0.1 0.1v1.4 0.1l0.1 0.2-0.1 2v0.2 0.1 0.1 0.1 0.4 0.1q0 0.1 0 0.3v0.4l0.1 0.6-0.1 0.7v0.7q0 0.4 0 0.4v0.1 1l0.1 0.4h-0.1l0.1 0.2v1.3l-0.1 0.2q0.1 0.1 0.1 0.4v0.2 0.1q-0.1 0.1-0.1 0.1 0 0 0.1 0.4v0.1 0.3 0.1 0.1 0.1 0.2 0.2 0.1 0.1 0.1 0.1l-0.1 0.2q-0.1 0-1.1-1-1.3-1.4-1.3-1.5l-0.3-0.4 0.1 0.2q-0.6-0.5-0.6-0.6v-0.1-0.2l0.1 0.1q-0.1-0.1-0.1-0.2v-0.3-0.3-0.1-0.6-0.2-0.5-0.5-0.4-0.4-0.2-0.2-0.1-0.3-0.3l-0.1-0.5 0.1-0.1-0.1-0.1h0.1-0.1l0.2-0.7-0.1-1.9v-0.2-0.1-0.1-2-0.5l0.1-0.7v-0.1h-0.1l0.1-0.2v-0.5-0.1q0 0.1 0.1 0.1-0.1-0.3-0.1-0.3v-0.1-0.4-0.1q0.1 0 0.1 0zm2.9 2.4h-0.1v0.1h0.1zm-3 11v0.1zm21.5-12.1v0.1zm-10 7.1v0.1zm0-0.1v0.1zm0-0.3h-0.1l0.1 0.1zm-0.1-0.2zm0-0.2v0.1zm0-0.3v0.1 0.1zm0-0.3v0.1 0.1zm-2.7-3.9v0.1zm13 9.4v3.9l-2.1-2.1-0.9-0.9-0.3-0.3v-0.1q-0.1-0.5-0.1-1.4v-0.1-0.2-0.5l-0.1-0.1h0.1v-0.1l-0.1-0.5v-0.5l0.1-0.1h-0.1v-0.3l0.1-0.2-0.1-0.2v-0.3l0.1-0.3-0.1-0.3v-1.3l0.1-0.3-0.1-0.1 0.1-0.1-0.1-0.2 0.1-0.1-0.1-0.1 0.1-0.1-0.1-0.1 0.1-0.3h-0.1l0.1-0.2h-0.1l0.1-0.1v-1.7q0 0 0 0h-0.2-0.1-0.3q-0.1 0-0.1-0.1v-0.1l-0.1 0.2-0.7-0.1-0.7 0.1h-0.9l-0.2-0.1v0.1h-0.3v0.3q-0.1 0.2-0.1 0.3 0 0.2 0.1 0.9v0.5 3.5 4.4h-0.6-0.2-0.1-0.1-0.1-0.2l-0.6-0.1v0.1l-0.1-0.1-1 0.1h-0.1-0.1l-0.2-0.1v-0.8-1.1-0.5-0.1-0.1 0.1h0.1v-0.2q0-0.5 0-0.7v-0.1q-0.1-0.7-0.1-2v-0.7-0.3-0.7l0.1 1.1v-0.1q-0.1-1.1-0.1-2.8v-0.2h0.1v0.5h0.1l-0.1-0.6h0.1q-0.2 0-0.2-0.4h0.1v-0.1h-0.3-1.5-1-0.1-0.1-0.1-0.2-0.1-0.1q-0.1 0-0.1 0.2h-0.1v0.1q0.1 0 0.1 0.1h-0.1q0 0 0.1 0v0.2q0 0.1 0 0.5v1.6 1.8h-0.1 0.1v0.6h-0.1l0.1 0.1-0.1 1.2 0.1 0.3-0.1 0.4 0.1 0.8h-0.1l0.1 0.1h-0.1l0.1 0.1v0.2 1 0.1 0.3 0.1q0 0.1-0.1 0.1l-2.3-0.1-0.1 0.1-0.2-0.1h-0.3-0.2-0.1q-0.1 0-0.1-0.2v-0.3-0.1-4.2-0.1-0.4-0.3-0.4-0.5-0.3-0.1q0-0.6 0-1.7v-0.1-0.2-0.5q0-0.8 0-1.6v-0.4-0.1-0.1-0.9-0.1-0.1-0.5q0 0 0 0v-3.3l2.1 2.1 0.9 0.9 0.2 0.2h0.7 0.4 0.5 1.4 1.2l0.7 0.1 0.1-0.1 0.2 0.1 0.2-0.1v0.1l0.3-0.1h0.3 1.4 0.1 0.2 3.4 0.2 0.1l1.5 0.1q0 0 0.1 0 0.6 0.2 0.6 0.4 0.3 0.4 0.3 0.5v0.3-0.2h0.1q0.1 0.2 0.1 0.5v0.5 1.8 0.1l-0.1 1v0.2l0.1 2.4v1.1l-0.1 3.5v0.3q0 0.2 0.1 0.3zm1.4-12.3v-0.4h1.3 0.1 0.1 0.1 0.2 0.3 0.4 0.1 0.1 0.1 0.1 1.2 0.1 2.1 0.2 0.2 0.2 0.1 0.1 0.1 0.2 0.1 0.1 0.2 0.2 0.3 0.2 0.4 1.1v0.3q-0.2 0.5-0.2 1.2v1.7l-0.2 0.1h-0.5-0.8-0.1q-0.2 0-0.2-0.1v0.1h-0.1-0.2q-0.1 0-0.1-0.1l-0.2 0.1v-0.1l-0.1 0.1h-0.4v-0.1l-0.1 0.1h-0.2v-0.1 0.1h-0.4l-0.1-0.1-0.1 0.1h-0.1v-0.1 0.1h-0.4v-0.1 0.1h-0.1v-0.1 0.1h-0.2v-0.1 0.1h-0.2v-0.1 0.1h-0.1l-0.4-0.1h-0.4-0.7q0 0 0 0-0.1 0-0.1 0h-0.3l-0.1 0.1h0.3 0.1v0.1l-0.1 0.1h0.1q0 0.1-0.1 0.1 0.1 0 0.1 0l-0.1 0.1h0.1v0.8 0.4 0.1h0.1q0.1 0 0.1 0 0.3 0 0.8 0h3.3 0.6l0.1 0.1v0.6l-0.1 0.5v0.2 0.3q0 0.3 0 0.9v0.7h-0.7-0.2-0.2-0.2-1.5-0.1-0.2-0.5-0.1-0.1-0.1-0.3-0.2l-0.1-0.1v0.1l-0.1-0.1-0.1 0.1q-0.1-0.1-0.1-0.3-0.2 0.3-0.2 0.6-0.1 0.1-0.1 0.1h0.1v0.1 0.1l0.1 0.1-0.1 0.3q0 0-0.1 0v0.1l0.1 0.1v0.2h-0.1v0.1h0.1v0.1q0 0.1 0.2 0.1v-0.1h1.5v0.1l0.1-0.1 0.3 0.1v-0.1l0.1 0.1 0.1-0.1 0.1 0.1 0.1-0.1 0.1 0.1 0.1-0.1v0.1l0.1-0.1 0.4 0.1h1.9l0.1-0.1 0.1 0.1h0.5 0.3 0.2 0.2q0.1 0 0.1-0.1 0.1 0.1 0.1 0.1v0.3 0.2 0.1 0.1 0.1 0.1 0.1 0.4 0.5 0.1 0.1 0.1 0.5 0.3 0.3h-0.4-0.2-0.2-0.6l-0.6-0.1h-1.1-0.1-0.1q-0.1 0-0.2 0h-0.5-0.1-0.1-1.2l-0.2 0.1-0.1-0.1v0.1l-0.1-0.1-0.1 0.1h-0.1v-0.1l-0.2 0.1h-0.2l-0.2-0.1-0.3 0.1h-0.2l-0.1-0.1-0.1 0.1-0.7-0.1-0.1 0.1-0.1-0.1-0.1 0.1-0.2-0.1h-0.1l-0.5 0.1-0.1-0.1v-0.1q0 0.2-0.3 0.2l-0.4-0.1v-0.2-0.3-0.1-0.4-0.2-0.1-0.1-0.6-0.1q0.1-0.1 0.1-0.2-0.1-0.2-0.1-0.9v-5.1q0.1-0.5 0.1-1.4v-0.1-0.1-0.1q-0.1-0.1-0.1-0.3v-0.1h0.1v0.1-0.1q0-0.1-0.1-0.1v-0.1h0.1-0.1v-0.1h0.1v-0.1-0.2l-0.1-0.8 0.1-0.5-0.1 0.1zm0.1 0.4q0-0.6 0.1-0.6 0.1 0 0.2 0.6-0.1-0.7-0.2-0.7-0.1 0-0.1 0.7zm0.4 0.1v0.1zm0 0.1v0.1zm20.6-1l0.2-0.1v0.1h0.1 0.3 3.3 1.3 0.3 0.2 0.5 0.3q-0.4 0.1-0.4 0.2h0.3q2.3-0.2 2.9-0.2v0.1 0.5 0.8 0.3 0.1 0.5 1q0 0-0.1 0h-0.2-0.2-0.4-0.6-0.1-0.5-0.2-0.1-0.3l-0.2-0.1-0.1 0.1h-0.1-0.2v0.1q0 0-0.1 0v0.1q0 0 0.1 0v0.1 0.1 0.1 0.1 0.2 0.6 0.1 0.2 0.8 0.1 0.1 0.5 4.2 3.4 0.3 0.1 1.7 0.1 0.1 0.1q-0.5-0.3-1.7-1.6 0 0-1.3-1.2-0.2-0.3-0.2-0.4-0.1 0-0.2-0.3l0.1-0.1v-0.1h-0.1q0.1-0.2 0.1-0.2v-0.8-0.4-0.2-0.2-0.3-0.3-0.1-0.1-0.1-0.2-0.4-0.5-0.1-0.1-0.1-0.3q0-0.9 0.1-1h-0.1l0.1-0.2v-0.1q0-0.1-0.1-0.1v-0.1q0-0.5 0-0.5 0 0 0-0.4h-0.1q0.1-0.1 0.1-0.3v-0.9-0.3-0.1-0.1-0.2-0.1-0.5-0.1h0.1v-0.1q0 0 0 0l-0.1-0.1-0.1 0.1h-0.2-0.1-0.3-0.2-0.6-0.7-0.1-0.1-0.1-0.4l-0.3-0.1-0.1-1.4v-1.7q0-0.1 0.1-0.1zm17.8-0.1h0.1 0.1 0.5l0.3 0.1 0.2-0.1v0.1l0.2-0.1q0.1 0 0.1 0.1 0.1 0.1 0.7 0.2 0.2 0.1 0.2 0.2 0.1 0.4 0.2 0.4h0.1q0.1 0 0.1 0.5 0 0.2 0.1 0.2v0.1 0.2 0.7 1.5 0.1 0.2 0.5 0.2 0.2 0.2 0.1 0.6 0.1 0.3 0.6 4.4 0.3q-0.1 0.7-0.4 1-0.4 0.4-1.3 0.4h-0.6-1.6-1.1-0.5-0.2q-2.7 0-2.8 0.1-0.6 0-1.1-0.6-0.4-0.4-0.4-1.1v-0.7-0.1q0-0.1 0-2.1v-5.3-0.7-0.1-0.7-0.3q0-1.1 0.9-1.5h0.1 0.3-0.1v-0.1q0.2 0 0.5 0h0.2 0.1 0.1q0.2 0 0.5 0h1.9l0.2-0.1v0.1-0.1h0.3v0.1-0.1h0.5v0.1l0.1-0.1zm-5.6 0.1v0.1h0.1v-0.1zm-0.2 0.1h-0.1 0.1 0.1zm4.3 3.1l-1.3 0.1-0.1-0.1-0.1 0.1-0.1-0.1v0.1-0.1h-0.1v0.1l-0.1-0.1h-0.1l-0.2 0.1v-0.1l-0.1 0.1-0.3-0.1v0.3 0.1 0.5 0.9 0.8q0 0.6 0 1.1v0.3 1.6 0.1 0.1 0.3 0.1 0.1 0.2q0 0.2 0 0.2v0.1 0.1h0.4 0.1l0.1 0.3v-0.3l1.6-0.1h0.1 0.1 0.5 0.1 0.2 0.1l0.1 0.1 0.1-0.1-0.1-0.2v-0.2-0.4h0.1v0.2q-0.1-1-0.1-1.4v-1.1-0.1-0.5-0.5-0.1-0.4-1h0.1v0.4h0.1v-0.1q-0.1-0.6-0.2-0.6v-0.3-0.3h0.1v-0.1q0-0.1 0.1-0.1-0.1 0-0.2 0 0 0-0.3 0h-0.5q0 0-0.1 0zm1.1 1.5v0.1zm0 0.2v0.3-0.1zm0.1 0.3h-0.1v0.1h0.1zm0 0.2h-0.1v0.1h0.1zm0 0.3v0.1zm-0.1 3.7h-0.1v0.1h0.1zm23.7-9.1v0.1 0.1 0.1-0.2zm-2.4 8.5zm2.5-7.6h-0.1l0.1 0.1zm-0.1-0.6v0.1zm0.1 11.1v4.2 0.4q-0.3-0.2-0.9-0.8-0.1-0.1-1.8-1.8-0.5-0.4-0.6-0.6 0-0.1 0-0.2v-0.2-0.1-0.2-0.2-0.1-0.5-0.4-0.1-0.2-0.5-0.7l0.1-1q0 0 0 0.2h-0.1v-0.1q0-0.2 0.1-0.2 0.2 0 0.2-0.1h-0.2 0.2 0.1q0.1 0 0.1 0l-0.4-0.1v-0.3h-0.1q0-0.1 0-0.1l-0.1 0.1h-0.1-0.1-0.1-2.6-0.1q0 0-0.1 0 0 0 0 0h-0.1q0 0 0 0 0 0 0 0h-0.1l-0.1 0.2 0.1 0.3-0.2 0.1q0 0 0.2 0v0.3q0 0.6 0 0.8v0.1 0.2 0.7 0.3 0.1 0.2 0.3 0.6 0.1 0.1 0.1 0.4q-0.7 0.1-1.1 0.1h-0.8-0.1l-1.3-0.1v-0.5-0.1-0.1-0.7-1.8q0-0.3 0.2-1.5-0.1 0-0.2 0.4v-0.5-0.1-0.1-0.5-0.2-0.1-0.1-0.1-0.1-0.2-0.3-0.2-0.2-0.7-0.1l0.1-2.7v-0.2-0.5l0.1-1.2h-0.1q0-0.5 0-0.7v-2.8-0.4q0.3 0.2 0.8 0.8 0.2 0.1 1.9 1.8 0.4 0.4 0.5 0.6 0 1.3 0 3.5v1h-0.2v0.1q0 0 0.2 0v0.1q0 0.2 0 0.3l0.2-0.1q0.1 0.1 0.5 0.1h0.3 0.1-0.1v-0.1h0.2v0.1h-0.1 0.1 1.6l0.1-0.1 0.1 0.2q0 0 0-0.1h0.4 0.1v-0.1q-0.1 0-0.1 0v-0.2h0.1l-0.1-0.1v-0.3-1.5l0.1-0.3-0.1-0.1h0.1-0.1l0.1-0.5v-0.1-0.1-0.1-0.3-0.3-0.8-0.2q0-0.1 0.2-0.1h2.7v0.1-0.1h0.1q0.1 0 0.1 0.1v0.1 0.1-0.2h0.1v0.5 0.2 0.4 0.1 0.3 1.3q0 0 0 0v0.1 0.1 0.1 0.1 0.2 0.1 1.1 0.6 0.5q0 0.1 0 0.5v0.1 0.3 0.2 2.3 1.5 0.2 0.1 0.4 0.2 0.1zm1.4-11.4v-0.4h1.3 0.1 0.2 0.1 0.1 0.3 0.4 0.1 0.1 0.1 0.1 1.2 0.1 2.1 0.2 0.2 0.2 0.1 0.1 0.1 0.2 0.1 0.1 0.2 0.2 0.3 0.2 0.4 1v0.3q-0.1 0.4-0.1 1.2v1.7l-0.2 0.1h-0.6-0.8q-0.2 0-0.2-0.1l-0.1 0.1h-0.1-0.1q-0.1 0-0.1-0.1l-0.2 0.1-0.1-0.1v0.1h-0.4l-0.1-0.1v0.1h-0.2v-0.1 0.1h-0.4l-0.1-0.1-0.1 0.1h-0.1v-0.1 0.1h-0.4v-0.1 0.1h-0.1v-0.1 0.1h-0.2v-0.1 0.1h-0.2l-0.1-0.1v0.1l-0.5-0.1h-0.3-0.7q0 0-0.1 0 0 0 0 0h-0.3l-0.1 0.1h0.3l0.1 0.1h-0.1v0.1q0 0.1 0 0.1 0 0 0 0v0.1h0.1l-0.1 0.8v0.4l0.1 0.1h0.1q0.1 0 0.1 0 0.3 0 0.8 0h3.3 0.6 0.1v0.6l-0.1 0.5v0.3 0.3q0 0.3 0 0.9v0.7h-0.7-0.2-0.2-0.2-1.5-0.1-0.2-0.5-0.2-0.1-0.1-0.2-0.2l-0.1-0.1v0.1l-0.1-0.1-0.2 0.1q0-0.1 0-0.3-0.2 0.3-0.2 0.6-0.1 0.1-0.1 0.1h0.1v0.1 0.1 0.1 0.3q0 0-0.1 0v0.1l0.1 0.1v0.2h-0.1v0.1h0.1v0.1q0 0.1 0.2 0.1v-0.1h1.5v0.1l0.1-0.1 0.2 0.1 0.1-0.1 0.1 0.1 0.1-0.1 0.1 0.1 0.1-0.1 0.1 0.1v-0.1h0.1v0.1l0.1-0.1 0.4 0.1h1.9l0.1-0.1 0.1 0.1h0.4 0.3 0.1 0.2 0.2q0.1 0 0.1-0.1 0.1 0.1 0.1 0.1v0.3 0.2 0.1 0.2 0.1 0.1 0.4 0.5 0.1 0.1 0.1 0.5 0.2 0.1 0.3h-0.5-0.1-0.2-0.6l-0.6-0.1h-1.1-0.1-0.1q-0.1 0-0.2 0h-0.5-0.1-0.1-1.2l-0.2 0.1-0.1-0.1v0.1l-0.1-0.1-0.1 0.1h-0.1v-0.1l-0.2 0.1h-0.2l-0.2-0.1-0.3 0.1h-0.2l-0.2-0.1-0.1 0.1-0.6-0.1-0.1 0.1-0.2-0.1-0.1 0.1-0.1-0.1h-0.2l-0.4 0.1-0.1-0.1v-0.1h-0.1q0 0.2-0.2 0.2l-0.4-0.1v-0.2-0.3-0.1-0.4-0.2-0.1-0.1-0.6-0.1q0-0.2 0.1-0.2-0.1-0.2-0.1-0.9v-5.1q0.1-0.5 0.1-1.4v-0.1-0.1-0.1q-0.1-0.2-0.1-0.3v-0.1h0.1q0-0.1-0.1-0.1v-0.1-0.1h0.1l-0.1-0.2 0.1-0.1-0.1-0.8 0.1-0.5h-0.1v0.1zm0 0.4h0.1q0-0.6 0.1-0.6 0.1 0 0.2 0.6-0.1-0.7-0.2-0.7-0.1 0-0.2 0.7zm0.5 0.1h-0.1v0.1h0.1zm0 0.1v0.1zm17.2 2.3h-0.7-1.8-0.1-0.1-0.1-0.3v-0.1q0 0.1-0.1 0.1v1.4l-0.1 0.1q0.1 0 0.1 0v0.2h0.1 0.3q0 0.1 0 0.1 0 0 0-0.1h0.4 0.6 0.1 0.1 0.1 0.1 0.1 0.1 0.1 0.1l0.5-0.1 0.1 0.1h0.2v-0.1l0.1 0.1h0.3v0.1-0.1h0.2v-0.1q-0.1 0-0.1-0.1h0.1-0.2l0.1-0.1-0.1-0.3v-0.5l0.1-0.2-0.1 0.1v-0.3h0.1 0.1-0.1-0.1v-0.1l0.1-0.1-0.1-0.1v0.1h-0.1v-0.1q-0.1 0-0.1 0.1zm3.6 9.8v0.2l-0.1 1.1v0.2 0.4 0.2 0.4 0.2 0.1 0.1 0.3h-0.1q-0.8-0.8-2.2-2.1h0.1q-0.2-0.1-1-0.8v-0.1h0.1q-0.1 0-0.1-0.1v-0.9l0.1-0.1-0.1-0.1v-0.2h0.1l-0.1-0.1v-0.9l0.1-0.1h-0.1v-0.9l0.1-0.1h-0.1v-0.1l0.1-0.3h-0.1v-0.2-0.3l0.1-0.1-0.1-0.1v-0.1h0.1q-0.1-0.1-0.1-0.1 0.1 0 0.1-0.1h0.3v-0.1h-0.4v-0.1l-0.1 0.1v-0.1h-0.1l-0.1 0.1h-0.1-0.8-0.2-0.5-0.2-0.1-0.1-0.2-0.2-0.3v-0.1q0 0 0 0.1h-0.2-0.2v0.2q-0.2 0-0.2 0h0.2l-0.1 1.3 0.1 0.9h-0.1q0.1 0.3 0.1 1.1v1.4l-0.1 0.1h-0.1l-0.1-0.1-1.9 0.1h-0.1-0.1-0.5-0.3q-0.2-0.1-0.2-0.7v-0.1-0.3-0.1-0.1-1-0.2-1.7-0.9-0.1-1-0.5-0.1-0.1-0.2l-0.1-0.8h0.1v-0.1l-0.1-0.1 0.1-0.3q0-0.3-0.1-0.3v-0.3-0.1-0.1-0.5-0.1-0.1-0.6-0.1-0.3l0.1-0.4-0.1-0.4v-1.1l0.1-0.1h-0.1v-0.1h0.1l-0.1-0.2 0.1-0.1v-1.1-0.1-0.5l0.1-0.2h-0.1l0.1-0.3v-0.3h-0.1l0.1-0.1v-0.3q0.9 0.7 2.2 2 0.2 0.1 0.9 0.8v0.1h0.9l0.3-0.1 0.2 0.1h0.2 0.7 0.3 0.6v0.1l1.5-0.1 0.1 0.1 0.1-0.1 0.2 0.1 0.4-0.1q0.5 0 0.7 0.2 0.4 0.2 0.6 0.8 0.1 0.3 0.1 0.9v0.1 1.5 0.2 0.4 2.8q0 0.6 0 0.9v0.1 0.9 0.1 2.3 0.2 0.2 0.8zm1.8-12.6h-0.1v0.8l0.1 0.2-0.1 0.1h0.1-0.1l0.1 0.1v0.3 0.1-0.5-0.5-0.3zm6.6 8.4h-0.2 0.2zm-0.1-4.2v0.1zm0-0.6h-0.1v0.5h0.1zm-3.4-0.9l-0.1 0.1v0.3h-0.1v0.1h0.1v0.9l-0.1 0.1q0.1 0 0.1 0v0.3h0.3 0.1 0.2 0.2l0.3-0.1v0.1h0.6 0.1 0.1 0.1 0.1 0.1 0.1 0.2 0.2q0.2 0 0.3 0 0 0 0 0h0.3v0.1h0.1v-0.2-0.2-0.8h0.1v-0.1l-0.1-0.3v-0.1-0.1h-0.1v-0.1l-0.2 0.1h-0.8l-0.3-0.1v0.1l-0.1-0.1h-0.2l-0.1 0.1-0.2-0.1h-0.6-0.3-0.1-0.1-0.1zm-3.1-1.1v0.2zm9.6 11v0.3 0.1 0.2 0.6 0.5l-0.1 0.1 0.1 0.2v0.3h-0.1 0.1l-0.1 0.3 0.1 0.2-0.1 0.2v0.2 0.1q0 0.1 0.1 0.1v0.1q-1.7-1.6-2.6-2.7-0.3-0.2-0.6-0.6v-0.1q0 0-0.1 0v-0.3-0.3-1.3-0.1l0.1-0.9-0.1-0.1 0.1-0.3q-0.1 0-0.1-0.1v-0.7q0-0.1 0.1-0.1 0 0 0 0v-0.1h-0.1q0-0.2 0.1-0.2h0.1q0 0-0.1-0.2v-0.2-0.1h0.1-0.6-0.3l-2.6-0.1q0 0.2-0.2 0.2 0 0.1 0.2 0.1-0.1 0-0.1 0.1h0.1q-0.1 0.4-0.1 0.4v0.4 2.5 0.1 0.3 0.2 0.8h0.1-0.1-0.1-0.1-0.1-0.8-1.7-0.1-0.1q-0.3 0-0.3-0.1v-0.2-0.4-0.1-0.1-0.1-0.1l0.1-0.2-0.1-0.1 0.2-5.7-0.1-0.1 0.1-0.3v-0.4-0.3-0.2-1.2q0-0.5 0-2v-0.1-0.1-0.7-0.8l0.1-0.1h-0.1l0.1-0.1-0.1-0.1 0.1-0.7v-0.4-0.1-0.2-0.3-0.1-0.2-0.1-0.1-0.2-0.2-0.1q0-0.1-0.1-0.1v-0.1q1.7 1.6 2.6 2.7 0.3 0.2 0.6 0.5h0.2 0.4 0.2q0.6 0.1 1.6 0.1h0.3 0.2 0.1 0.1 0.1 0.1 0.2 0.1 0.1 0.1 0.1 0.8 0.2 0.1q0.1 0 0.1 0h0.1q0.4 0 0.6 0.2 0.2 0.2 0.4 0.2 0.3 0.2 0.4 0.7l0.1 0.3v1 1.5 0.2 0.1 0.1 0.1q-0.1 1.2-0.2 1.2 0 0-0.1 0l0.1 0.1h-0.1q-0.5 0.7-0.6 0.7h-0.1-0.2q0 0.1-0.3 0.1h-0.2-0.1l0.5 0.1v0.1h0.2q0.3 0 0.4 0.3h0.1q0.4 0.3 0.5 0.9v0.1 0.7 0.1 0.1 0.1 0.4 0.2 0.2 0.2 0.4 0.2l-0.1 1.1h0.1v0.3 0.8 0.2zm-9.6-13.1h-0.1v0.4h0.1v-0.2zm11.6-0.1l0.4-0.1 0.1 0.1 0.2-0.1h0.1l0.1 0.1v-0.1h0.7l0.2 0.1v-0.1l0.2 0.1h0.2l0.3-0.1v0.1-0.1h0.3v2.6l-0.1 0.5 0.1 0.1q0 0.2-0.2 0.3v0.1q0.1 0 0.1 0.1v2 0.1 0.4l-0.1 1 0.1-0.1v0.1 1 1.7l-0.1 0.1-1-0.1q-0.3 0-0.7 0h-0.9l-0.5-0.1v0.1l-0.1-0.1v-1.2-0.1-0.1-0.2-0.1-0.1-0.2-0.1-0.1-0.2-0.1-0.1-0.2-0.4-0.3-0.6-0.2-0.1-0.1-0.3-0.1-0.1h0.1l-0.1-0.1v-0.8-0.1-0.2-0.6l0.1-0.1h-0.1l0.1-0.1h-0.1v-0.1l0.1-0.1h-0.1l0.1-0.2v-0.2-0.1-0.2-0.1-0.1-0.1-0.1-0.1-0.2-0.1-0.1-0.2-0.1-0.6zm-0.4 11.5l1 0.1h0.1 0.6 0.1l0.9-0.1 0.5 0.1v0.4 0.5 1.2q0 0.2 0 0.6v0.1 0.1 0.5 0.2 0.1 0.3 0.2 0.2 0.1 0.1 0.1 0.1q-0.1 0-0.6-0.6-0.1 0-0.2-0.2-0.1 0-1.7-1.6l-0.3-0.3-0.4-0.4q-0.1-0.1-0.1-0.2v-1.4-0.1q0-0.1 0.1-0.1z"/>
	</g>
	<path id="SNIGDHA OS" class="s1" aria-label="SNIGDHA OS"  d="m88.7 393.2l0.5-0.1 1.5 0.1h2.2v0.1l0.3-0.1 0.2 0.1 1.9-0.1h3.5 6 0.2 0.3l5.3 0.1h2.1l2.3 0.1v9.5 0.4 0.3 0.2h-3.9l-0.2-0.1-0.3 0.1h-0.1l-0.2-0.1-0.1 0.1-0.8-0.1-0.5 0.1v-0.1 0.1l-0.9-0.1-8.7 0.1v0.1l-0.3-0.1h-3.6l-0.3-0.1h-0.4l-0.3-0.2q0 0.1-0.5 0.2l-0.1 0.5v0.9 0.3 0.3q-0.9 0.1-0.9 0.3v0.1q0.9 0.1 0.9 0.2v1.9 0.2 0.3l-0.1 0.6 0.2 0.4h0.1l-0.1-0.3 0.1-0.1 0.3 0.2q0.3-0.2 0.6-0.2h6.7l4 0.3q0-0.2-0.1-0.2v-0.1h0.5 0.6l0.2 0.1 0.1-0.1h2.8l0.4 0.1 0.2-0.1q1 0 2.6 0.9 0.1 0.4 0.7 0.8 1.4 1.2 1.4 3.6v0.1 0.2 0.1 0.1 0.3 0.4 0.3 0.1 0.1 0.7 3.9 3.8 0.6 0.2l-0.1 1.4 0.1 0.6v0.4l-0.1 0.3 0.1 0.2-0.1 0.5 0.1 1.3v0.8q0 2.6-2.3 4.3-0.9 0.7-3.2 0.7h-8l-1-0.1-0.1 0.1-0.5-0.1h-4.5-0.8-0.3l-0.5-0.1-0.3 0.1h-1.2l-0.3 0.1q-0.8-0.1-2.7-0.1h-5.8-0.1l-0.1-0.3 0.1-8.9-0.1-1.3h0.5 1 1.7 0.8 0.2 1.3 0.3 0.4 0.1l0.8 0.2q0.6-0.1 1.5-0.1h0.2l-0.4 0.1v0.2l5.4-0.3h2.7 0.6 0.1 1.7 1.6q0.1 0 0.1 0.4h0.1q0-0.4 0.1-0.4h0.5 0.1v-0.1h0.1-0.1v-0.1l0.1-0.7v-2.2-0.8l-0.1-0.9 0.1-0.3-0.1-0.4 0.1-0.3h-0.3-0.5q0-0.3-0.1-0.3-0.2 0-0.2 0.3h-0.1q-1.7-0.3-2.8-0.3l-0.3 0.1-0.4-0.1h-1l-0.7 0.2v-0.1l-0.1 0.1-1.7 0.1v-0.1l-0.3 0.1h-2-1-0.1-0.4-0.3-0.6-2.7q-2.7 0-2.7-0.5 0-0.3-0.8-0.4-0.9 0-2-2.2v-0.2q0.2 0 1.3 1.7h0.1l-1.5-2.2q-0.2-0.5-0.2-1 0-0.3 0.1-0.3l-0.1-0.1v-3.5l0.1-0.6h-0.2v-0.3h0.1 0.1l0.1-4.5v-1.4q0-0.4-0.3-0.4v-0.7-3.7-0.4-0.3l0.1-0.3-0.1-0.2v-0.1-0.4q0-0.6 0.6-2 1.7-2.5 4.2-2.5h0.2l0.1 0.1h0.3zm62.5 31.5v0.3zm0.2 3.4h-0.1v0.1l0.1 0.5zm0-0.7h-0.1l-0.1 0.2 0.1 0.2h0.1zm-0.1-0.8h-0.1v0.5h0.1zm0.2 9.5v0.1q0.1 0.8 0.1 2.8v0.9l0.1 1.1-0.1 0.9 0.1 0.6-0.1 0.3h0.1v0.1l-0.3 0.9v3.1q-2.2-2-2.3-2.5-6.2-6.3-6.2-6.8l-1.5-1.4q0-1.3-0.1-4.1l0.1-0.1-0.1-0.1v-0.1l0.1-0.4-0.1-0.5 0.1-0.2-0.1-0.5v-0.4l0.1-0.3-0.1-0.4v-1.1q0-2.2 0.5-5.4l-0.2-0.3v-0.1q0-1.1 0.3-2.1l-0.1-0.2h-0.1q-0.1 0-0.2 1h-0.2v-5.4q0-6.7 0.2-10.2 0.6-0.3 1.2-0.3h-0.4-0.8v-0.6q0-0.5 0.1-0.5v-0.3q-0.3 0.2-0.5 0.2h-0.7v-0.1l-0.1-0.9h0.1l-0.1-0.2h-0.1q-0.2 0-0.2 0.8v0.3l-0.1 0.1h-2.3l-1 0.1-1.1-0.1h-2.2l-0.2-0.1q-0.2 0.2-0.9 0.2l-0.1-0.1-0.1 0.1-0.6-0.2-0.4 0.1h-0.1l-0.4-0.1q-0.2 0.4-0.2 1.9v1.6 0.1 0.1 0.1 0.2 1 2q0 3.2-0.2 5.1l0.1 1.3-0.1 5 0.2 7.3v6.6h-0.5-1.4-0.3-2.1-4.4l-1.1-0.1-0.1 0.1h-0.1l-0.8-0.1v-0.2l0.2-0.1v-0.3l0.1-14.1v-0.2-0.3-0.1-0.4-0.4-0.3-0.2-1.6-8.6h0.1l-0.1-0.1v-0.1l0.1-0.6-0.1-0.1v-0.1l0.1-0.2h-0.1l0.1-0.1v-1.3h-0.1l0.1-0.1-0.1-0.1 0.1-0.3v-0.1l-0.1-0.2 0.2-0.4-0.1-0.1 0.1-0.4v-0.8l-0.1-0.3 0.1-0.1h-0.1l0.1-0.1v-1.1-4-0.7-2-2.6q-0.1-0.8-0.1-2.7v-0.9-1.1-0.8-0.1-0.5-0.3-0.1l0.2-0.9v-3.1h0.1q2.1 2 2.3 2.5 6.1 6.2 6.1 6.8l1.4 1.2h1l0.2 0.1 0.1-0.1 1 0.1h6.1l1.3 0.1 0.3-0.1v0.1l0.1-0.1h1.5l1.3 0.1 0.1-0.1 0.5 0.1 2.8-0.1v0.1h0.1v0.1l0.2-0.1 1.2 0.3h0.3l0.3-0.1q2 0.1 3 1.7l0.6 3.6v2.2 0.7 2.2 2.4 2.9l-0.1 1h0.1l-0.1 0.2v6.5h-0.1l0.1 0.2-0.2 7.6v0.1 0.6q-0.1 4.4-0.1 4.4h-0.2v0.7 0.3q0.2 0.3 0.2 1.2v0.6l-0.1 0.9h0.1v0.1l-0.1 0.7 0.1 1.6zm6.2-43l0.5-0.1 1.1 0.1h0.1 0.4l2.6 0.1v-0.1h0.1l0.4 0.1h0.5l0.3 0.1 0.2-0.2 0.4 0.2v-0.1l0.1 0.1h1.6l0.1-0.1v0.1h1.2q0 2.5-0.3 5.2v0.2l-0.1 0.4h0.1v-0.1h0.1 0.1l-0.1 1.4v0.6l-0.1 0.1h0.1v0.6q0 0.5-0.2 0.5l0.1 4.4v0.5l0.2 0.5-0.2 6.4v0.1 0.7 0.3 0.3 0.4 1.1l-0.1 0.4q0.1 0.3 0.1 0.8v1.4l0.1 2-0.1 2.2v2.4q0 1.2-0.1 1.2l0.1 0.4v3.1l0.1 1.2h-0.1l0.1 0.7v4l-0.1 0.7q0.2 0.5 0.2 1.3l-0.1 0.9h0.1v0.1q-0.1 0.2-0.2 0.2 0.1 0 0.2 1.6h-0.1l0.1 0.1v1l-0.1 0.3 0.1 0.4v0.4l-0.1 0.6 0.1 0.6-0.1 0.1 0.1 0.3v0.2l-0.1 0.4 0.1 0.3-0.2 0.7q-0.3 0-3.4-3.4-4.3-4.3-4.3-4.6l-1-1.3 0.3 0.5v0.2q-1.9-1.7-1.9-2.2l-0.1-0.3v-0.4l0.4 0.2q-0.4-0.4-0.4-0.7v-0.8l-0.1-1 0.1-0.2-0.1-0.2 0.1-1.9v-0.6l-0.1-1.6 0.1-1.8v-1.2l-0.1-1.3h0.1l-0.1-0.1 0.1-0.4-0.1-0.6 0.1-0.3-0.1-1.1v-1.1-1.4-0.5-0.2-0.2l0.4-2.1-0.3-5.9v-0.1-0.8-0.2-0.3-6.5-1.5-0.2l0.3-2.3v-0.2h-0.1l0.1-0.5v-1.6-0.4h0.1q0 0.2 0.2 0.2-0.3-0.7-0.3-0.7v-0.3-1.5-0.4h0.1q0.2 0 0.2 0.2h0.1v-0.1l-0.1-0.1zm9.3 7.9h-0.1v0.2h0.1zm-9.5 35.4h-0.1v0.1l0.1 0.1h0.1zm18.7-43.2h0.2l0.1 0.2 0.1-0.1h0.1l1.4 0.1 1.3-0.1 0.1 0.1v0.1l-1 0.1v0.1h0.1q1.2-0.2 1.8-0.3h1.5 0.1 2.7l2.4-0.1 0.6 0.1 0.8-0.1 1 0.1 0.7-0.1 0.2 0.1 0.6-0.1 0.8 0.1 0.5-0.1 0.4 0.1 0.5-0.1v0.1l0.1-0.1h0.1l0.1 0.1h0.2v-0.1l4 0.1q0.2 0 0.4 0.3 0.1-0.3 0.2-0.3h0.3q1.2 0 2.1 0.9v-0.1q0.6 0 1.6 1.5 0.2 0 0.6 2.4l0.2 1.7v0.4 0.2 1 1.4 0.6 0.1 0.1 0.8 2.2l-0.1 0.2 0.1 0.3v0.6l-0.1 0.3 0.1 0.2q-0.1 1-0.2 1h-0.6l-1.2-0.1-1 0.1q-3.7-0.1-5.1-0.2h-0.1-0.8v0.1h-0.3v-0.1l-0.1-0.2-0.3 0.1h-0.1q-0.4 0-0.4-0.4v-3.4q0-0.4 0.2-0.4 0-0.1-0.2-0.1v-0.3l0.5-0.2h-0.4-0.1l0.1-0.2-0.1-0.3h-0.1l-0.2 0.2h-0.1v-0.1l-0.4 0.1h-2.1v-0.1l-0.1 0.1h-0.4l-2-0.1v-0.2h-0.1q0 0.2-0.2 0.2h-3.8l-0.1-0.1v-0.4l0.1-0.2-0.1-0.3q-0.2 0-0.2 0.8v0.2h-0.6l-0.4-0.1q-0.2 0.3-0.4 0.3l0.1 0.3v0.5l0.1 0.6h-0.1 0.1v0.1l-0.1 0.2 0.1 0.2-0.1 0.5 0.1 1.2q-0.4 3-0.4 7l-0.1 0.4 0.2-0.1h0.1v0.6h-0.1l-0.1 0.9v0.3l0.1 2.4h0.1v0.4h-0.1q0.1 1.9 0.1 3.2v1.7 0.2 0.3 0.6 0.2l0.3-0.1 0.2 0.1h0.1 1.4q0 0.2 0.1 0.2l0.1-0.2 8.2 0.1 0.1 0.1h0.1l0.5-0.2h-0.1v-0.1q0.1-0.3 0.5-0.3h0.3v-0.2q-0.4 0-0.4-0.1v0.1h-0.3q-0.2-0.1-0.2-0.5v-0.4l0.3-1.9h-0.3v-1.2q0.3 0 0.3-0.1v-0.1l-0.3-0.1v-0.2q0-0.2 0.1-0.2v-0.1-0.1l-0.2-0.3q-0.2 0-0.5 0.3h-0.1v-0.1l-0.1 0.1q-1.1-0.1-1.1-0.1v-0.2h-0.1v0.2h-0.5q-0.1 0-0.2-0.2v-0.1h-0.1l0.1 0.3h-2.5l-0.2-0.2v-0.4-1l0.1-0.3-0.1-0.6v-0.2-0.6-1l0.1-0.1v-0.1l-0.1-0.2v-0.2q0-0.2 0.6-0.3h0.3 0.5 0.3l2.7 0.3v-0.1h-0.2v-0.2h11.1q0.6 0 0.6 0.6l-0.1 1.9v1.9l-0.1 1.7 0.1 0.1-0.1 0.6v8.5 1.6q-0.1 0-0.3 0.4h0.3q-0.9 2.3-1.4 2.5v-0.1l0.6-2.4-0.1-0.1-0.9 2.9q-1.3 1.1-2.7 1.1h-0.3q0-0.2-0.3-0.4-0.2 0-0.2 0.4h-2.5-0.3-0.1l-10.2-0.1h-0.1-0.3-0.2-0.1-3.8-3.1l-0.2 0.1h-0.1v-0.1l-0.6 0.1h-0.1q-0.6 0-1.9-0.6-1-0.6-1.4-1.3 0.2-0.1 0.4-0.4-0.3 0.3-0.6 0.3-0.6-1-0.6-1.3l0.1-0.3q-0.1-1.1-0.3-1.1-0.2 0-0.2-0.4h0.2v-0.1l-0.2-0.3v-8.8l0.1-1.1-0.1-0.1 0.1-0.2v-4.6-2.1l0.1-0.7-0.1-0.1 0.1-0.3v-2.2q0-2.2 0.2-2.2l-0.1-0.1 0.1-0.9h-0.2v-0.6-0.7l0.3-3.6h-0.1l-0.1 1.2v0.1h-0.2v-3.6h0.2q-0.1-0.8-0.2-0.8l0.1-0.3-0.1-0.6q0-1.8 2-3.7 1.7-1.3 2.7-1.3zm2 0.4l-1.2 0.1 0.5 0.1 0.9-0.1v-0.1zm-2.6 0.1l-0.1 0.1h1.2v-0.1h-0.8zm-1.5 1.4l-0.2-0.1v0.3h0.2zm17.7 19.8h-0.2v0.1l0.2 0.1 0.1-0.1 0.1 0.1h0.1v-0.1zm21.5-21.6h0.2 0.3 0.1 0.2 0.2l0.1-0.1 0.4 0.1h5.4 0.2 0.2v-0.1l0.1 0.1h1.4l0.3-0.1 0.2 0.1 0.1-0.1 1 0.1 0.3-0.1v0.1l1.6-0.1h0.2 0.3l8.2-0.1v0.3q0.2 0 0.2-0.2h0.3q2.5-0.1 4.4 2.4 0.6 1.2 0.6 2.4h-0.1l0.1 1.1v0.2q0.1 2-0.1 3.8l0.1 0.7v6.3l-0.1 0.5 0.1 0.1v1.3l0.1 16.2v1.8q0 2.7-0.7 3.6-0.9 1.5-1.8 1.5-2.6 0.9-3.9 0.9l-3.6 0.1-0.5-0.1-0.3 0.1v-0.1l1.3-0.2v-0.1l-4.4 0.4h-6.9-0.6l-0.2 0.1v-0.1l-0.1 0.1-0.4-0.1h-1.8l-2.4-0.1-0.8 0.2-0.5-0.1h-0.1v0.1l-0.4-0.1h-1.4-2.3l-0.1 0.1-0.1-0.8q0.1 0 0.2-0.4v-0.1l-0.1-0.8 0.1-0.3h-0.1v-0.1l0.1-0.7-0.2-3 0.2-6.3h0.1v-0.2l-0.1-0.2 0.2-0.3-0.1-0.3 0.1-0.3v-2.9-0.2-0.4-0.4-0.4l0.1-0.8v-0.3h-0.1q-0.2 1.5-0.4 2.1h-0.1v-1h0.1l-0.1-0.1v-0.6q0-2.2 0.3-3.6-0.2-0.3-0.2-1.5v-0.1h0.1l-0.1-0.3h0.1v-0.1l-0.1-1.6 0.1-2h-0.1q0 0.2-0.1 0.2h-0.1v-0.1-1.6-0.1q0-3.8 0.1-8.1v-1l-0.2-1.4q0-1.9 0.2-2.5h1.6l0.8-0.2zm15 9.5h-0.1l-0.2 0.9-9.2 0.2-0.2-0.1q-0.3 0.1-0.3 0.2v0.5h-0.2v0.2h0.2l0.1 0.2-0.1 1.1 0.1 7.9v0.1 2 0.9l0.1 0.2-0.1 0.2 0.1 0.1-0.1 0.2v3.2l0.1 0.8-0.1 0.6 0.1 0.2-0.1 0.3v0.2l0.1 0.3-0.1 0.1h0.1l-0.1 0.1v1.1l-0.1 0.5h0.1v0.1h-0.1-0.4v-0.1h0.1v-0.1l-0.4-0.1-0.4 0.1q0 0.1 1.2 0.3l-0.1 0.4 1.5 0.2 0.1-0.1 1.4 0.1 3.2-0.1 0.1 0.1 0.1-0.1 1.6 0.1 2-0.1 0.1 1h0.1v-0.7-0.3h0.3q0.1 0 0.1 0.3l0.2 0.1q0-0.4 0.5-0.4v-0.1-0.2l-0.2-0.1v-0.9l-0.1-0.6 0.1-0.4v-0.6l-0.1-0.7 0.1-0.8-0.1-0.8 0.3-0.4h-0.1-0.1v-0.2l-0.1-0.8 0.1-3.1-0.1-0.7v-0.1-1.3-3.3-0.1-0.3-0.1-0.8l-0.1-3.2v-0.4l0.1-0.1-0.1-0.1v-0.2q0-0.2 0.3-0.2 0-0.1-0.2-0.1v-0.5q0.1 0 0.1-0.2h-0.1v-0.1-0.1-0.1-0.3h-0.5-0.5zm48.1-8.3l-0.1 0.1v0.4 0.4h0.1v-0.2l-0.1-0.3zm-7.8 27l-0.1 0.1 0.2 0.1v-0.2zm7.8-24.1l-0.1-0.2v0.1l0.1 0.1zm0-1.8h-0.1v0.3h0.1zm0.2 35.6v13.7l-0.1 1h-0.1q-0.7-0.4-2.6-2.4-0.5-0.3-6.1-5.9-1.3-1.1-1.6-1.9-0.2-0.3-0.2-0.5v-0.6-0.6-0.4-0.7h0.1l-0.1-0.2 0.2-1.7-0.2-1.5h0.1l-0.1-0.1 0.2-0.8-0.1-1.5v-2.1l0.3-3.2q-0.1 0-0.2 0.4h-0.1v-0.2q0-0.7 0.1-0.7 0.8 0 0.8-0.2h-0.8v-0.2l1 0.1v0.1q0.3 0 0.4-0.1v-0.1l-1.3-0.1v-0.1l0.2-0.9v-0.1l-0.3 0.1h-0.1q0-0.3-0.2-0.4v0.5h-0.5l-0.2-0.1-0.5 0.1h-8.3v-0.3h-0.2q0 0.3-0.3 0.3-0.3 0-0.3-0.3 0 0.1-0.2 0.1-0.1 0-0.1-0.1h-0.2v0.1l-0.2 0.7 0.1 1-0.4 0.1q0 0.1 0.4 0.3v0.8h0.1 0.1v0.2h-0.2q0.1 1.8 0.2 2.2l-0.1 0.1 0.1 0.3v0.8l-0.1 2.3 0.1 0.9h-0.1v0.1l0.1 0.2-0.1 0.6 0.1 1v1.8l-0.1 0.2 0.1 0.3v0.1h-0.1l0.1 0.3v0.3l-0.1 1.2q-2.2 0.3-3.6 0.3l-2.5-0.1v0.1h-0.1l-0.3-0.1-3.9-0.1-0.1-0.1v-0.1-1.7-0.3-0.3-2.1-6q0-0.9 0.4-4.5-0.2 0-0.3 1.3h-0.1v-1.7l-0.1-0.1h0.1v-0.4l-0.1-0.1 0.1-0.1-0.1-1.5v-0.1l0.1-0.7-0.1-0.1 0.1-0.3h-0.1 0.1v-0.6l-0.1-0.3 0.1-0.1-0.1-0.6 0.1-1-0.1-0.6h0.1-0.1l0.1-0.5 0.1-2.3-0.1-0.3 0.3-8.8v-0.5-1.7h-0.1l0.2-3.7h-0.1q0.1-1.8-0.1-2.3v-9.1-1h0.1q0.8 0.4 2.7 2.4 0.4 0.3 6 5.8 1.3 1.2 1.7 1.9h-0.1q0 4.2-0.2 11.3v3.2l-0.5 0.1q0 0.2 0.5 0.3v0.2q0 0.5 0.1 0.8l0.5-0.1q0.6 0.2 1.8 0.2h0.8 0.3v-0.1h-0.3l0.1-0.1h0.6v0.1h-0.3v0.1h0.4 0.1l4.9-0.1h0.6l0.1 0.3q0.1 0 0.1-0.2l0.1-0.1h1l0.4 0.1 0.1-0.1q-0.3 0-0.3-0.2v-0.6h0.3v-0.1l-0.3-0.1 0.1-1.1v-4.8-0.9-0.3-0.2-1.6-0.1l0.1-0.2-0.1-0.3 0.1-0.2h-0.1l0.1-1v-1-2.6-0.5q0-0.3 0.9-0.3h8.4l0.1 0.1v-0.1h0.2q0.5 0 0.5 0.2v0.3 0.3h0.1v-0.7h0.2v1.7 0.5l0.1 1.3-0.1 0.4 0.1 1-0.1 4.2q0 0.1-0.2 0.1v0.1l0.1 0.6h-0.1l0.1 0.3v0.7l0.1 0.2v0.1h-0.1l-0.1 3.7v1.8l0.1 1.6-0.1 0.2q0.2 0.1 0.2 1.5l0.1 0.2-0.1 0.9 0.1 0.3-0.1 0.4v7.4 4.8l-0.1 0.7 0.1 0.5v1.2l-0.1 0.7 0.1 0.1-0.1 0.1zm25.2-27.4l-2.3-0.1-5.6 0.1h-0.4-0.1l-0.3-0.1-0.3 0.1h-0.9v-0.3q-0.2 0.2-0.4 0.2v4.6l-0.2 0.2v0.1q0.2 0 0.2 0.1v0.6h0.3 0.9q0 0.2 0.1 0.2 0.1 0 0.1-0.2l1.1-0.1 2 0.1 0.5-0.1v0.1h0.1l0.2-0.1v0.1l0.1-0.1h0.1v0.1h0.1v-0.1h0.1l0.4 0.1 0.4-0.1 0.2 0.1 0.2-0.1 0.3 0.1 1.4-0.2 0.5 0.1h0.5v-0.1l0.2 0.1h1.1v0.3h0.1v-0.3h0.5v-0.1q-0.2 0-0.2-0.3l0.2-0.2-0.5-0.1 0.1-0.2-0.1-1.1v-1.4l0.4-0.5v-0.1h-0.1l-0.3 0.3v-1h0.3 0.2l0.2-0.1h-0.5-0.2v-0.3l0.2-0.3-0.3-0.2-0.1 0.2h-0.2v-0.4h-0.1q-0.2 0-0.2 0.4zm11.5 31.5v0.7l-0.2 3.5v0.1 0.4 1.5l-0.1 0.6 0.1 0.1-0.1 1v0.9l0.1 0.2-0.1 0.2v1h-0.2q-2.8-2.5-7-6.6v-0.1q-0.5-0.2-2.9-2.5v-0.2l0.2-0.1q-0.2-0.2-0.2-0.4v-2.9l0.1-0.2-0.1-0.3v-0.8l0.1-0.1-0.1-0.1v-3.1h0.1l-0.1-0.1v-2.9l0.1-0.3-0.1-0.2v-0.2l0.1-0.9-0.1-0.1v-0.6l-0.1-0.9 0.2-0.5-0.2-0.3v-0.2h0.3q-0.2-0.2-0.2-0.4 0.2 0 0.2-0.2l-0.1-0.1h1l0.1-0.2h-1.3v-0.1-0.1l-0.1-0.1h-0.1l-0.2 0.1h-0.1v-0.1h-0.1l-0.3 0.1h-0.3l-2.8 0.1v-0.1l-0.7 0.1h-1.5l-0.6 0.1-0.1-0.1v0.1l-0.1-0.1h-0.5l-0.5-0.1-0.7 0.1h-1v-0.4q-0.1 0-0.1 0.4h-0.6l-0.6-0.1v0.2 0.4q-0.5 0-0.5 0.2l0.5 0.1-0.3 4.2 0.2 2.8h-0.1q0.3 1 0.3 3.3v4.7l-0.3 0.2h-0.3l-0.4-0.1h-6.2v0.1h-0.1l-0.1-0.1-0.5 0.2-1.6-0.1h-1q-0.3-0.2-0.4-2.3v-0.2l-0.1-1.1 0.1-0.1-0.1-0.4v-3.1-0.6-0.1-5.4l0.1-2.9-0.1-0.5v-3.1l-0.1-1.5 0.1-0.1-0.1-0.3 0.1-0.4-0.1-0.5-0.1-2.8h0.1v-0.1l-0.1-0.4 0.1-1.1q0-0.9-0.1-0.9v-0.1-0.8-0.4-0.3-1.7-0.3-0.3-1.7-0.3-0.2-1l0.1-1.1-0.1-1.3v-3.6l0.1-0.4-0.1-0.1 0.1-0.2-0.1-0.6v-0.1l0.1-0.3 0.2-3.4v-0.1-0.4-1.5l0.1-0.6-0.1-0.1 0.1-0.9v-0.9l-0.1-0.2 0.1-0.3v-0.9h0.2q2.8 2.4 7 6.5v0.1q0.5 0.2 2.9 2.5v0.2h2.8l0.9-0.1 0.7 0.1h0.8 2.1v0.1l0.1-0.1 1 0.1h2l-0.1 0.3 4.7-0.2 0.3 0.1 0.3-0.1 0.6 0.1 1.5-0.2q1.5 0 2.2 0.7 1.2 0.6 1.9 2.5 0.2 1.1 0.3 2.8h-0.1l0.1 0.3v4.8l-0.1 0.8 0.1 1.1v9q0 2.1 0.1 3h-0.1l0.1 0.4v2.7l-0.1 0.5v7.4 0.6 0.5 2.6zm57.2-42.2l0.4-0.1 0.2 0.1v-0.1l0.1 0.1h1.5 0.9l0.7-0.1v0.1l0.6-0.1q0.3 0 0.3 0.2 0.4 0.3 2.2 0.6 0.7 0.4 0.7 0.8 0.5 1.1 0.8 1.3h0.1l0.1-0.1q0.3 0 0.3 1.7l0.1 0.1q0 0.4 0.3 0.4v0.2l-0.1 0.1h0.1v0.1 0.7 2.1 4.8l-0.1 0.5 0.1 0.5v1.6l-0.1 0.7 0.1 0.6-0.1 0.7 0.1 0.4-0.1 1.7 0.1 0.5-0.1 1v1.9l0.1 14.2 0.1 0.9q-0.4 2.1-1.6 3.3-1.3 1.3-4 1.3h-2l-5.1-0.1h-3.4l-1.8 0.1-0.1-0.1-0.6 0.1q-8.7 0-8.7 0.1v0.1h-0.2q-1.8 0-3.6-2-1-1.2-1-3.6l-0.1-2 0.1-0.5q-0.2-0.3-0.2-6.6l0.1-17.2-0.1-2.3h0.1-0.1l0.1-0.3-0.2-2.2v-0.8q0-3.6 3.2-4.9h0.1l0.2 0.1 0.8-0.1v-0.1h-0.4v-0.1q0.8-0.3 1.8-0.3h0.5v0.1 0.1l0.3-0.1 0.2 0.1q0.8-0.2 1.7-0.2h6.1 0.8 0.1 0.7 0.1 1.7 0.1zm-17.7 0.3l-0.2 0.1h0.3v-0.1zm-0.4 0.1h-0.5v0.1h0.2l0.4-0.1zm14 9.9l-4.3 0.4-0.3-0.1-0.3 0.1-0.3-0.1-0.1 0.1-0.1-0.1h-0.1v0.1l-0.5-0.1h-0.3l-0.7 0.1v-0.1l-0.2 0.1-1-0.1v0.7l-0.1 0.3 0.1 0.3v1.5l0.1 2.8h-0.1 0.1v2.6l-0.1 0.1h0.1q-0.2 1.9-0.2 3.4v0.9l0.2 5.4h-0.1v0.1l0.1 0.4v1h-0.1l0.1 0.1v0.1l-0.1 0.5 0.1 0.5q0 0.6-0.1 0.6v0.3 0.4l1.3-0.1 0.2 0.1 0.1-0.1 0.1 0.1 0.2 0.9h0.1v-0.9l5-0.2h0.4 0.3 1.6 0.3 0.7 0.4l0.3 0.2h0.1v-0.2l-0.2-0.8 0.2-0.6-0.1-1.2v-0.1h0.1l0.1 0.7v-0.2q-0.2-3-0.2-4.3v-3.6h0.1l-0.1-0.1 0.1-0.3-0.1-1.5v-1.7l0.1-0.2-0.1-0.1 0.1-1.3v-3.2h0.1l0.2 1.4v-0.2q-0.1-2.1-0.4-2.1l0.1-1v-0.8l0.1-0.2v-0.1h-0.1v-0.2q0-0.2 0.5-0.2-0.5 0-0.7-0.1 0 0.2-0.8 0.2h-1.8q0-0.3-0.1-0.3zm3.3 5.1h-0.1v0.2h0.1zm0.1 0.5h-0.2v0.1l0.2 1.1v-0.6zm0.1 1.3v0.3zm0 0.4v0.3 0.2h0.1v-0.1zm0.1 1.1l-0.1 0.1 0.1 0.1zm-0.5 11.9v0.3zm20.3-30.5h0.4 1.6 2.1v0.1h0.4 0.1l2-0.1h3.5l5.9 0.1 0.3-0.1 0.2 0.1h5.4 2.1l2.3 0.2v9.5l-0.1 0.3 0.1 0.4-0.1 0.1h-3.8-0.2-0.3-0.1-0.3-0.1-0.8-0.4-0.1-0.8-8.7l-0.1 0.1-0.3-0.1h-3.5l-0.4-0.1-0.3 0.1-0.3-0.3q0 0.1-0.5 0.3l-0.2 0.4 0.1 0.9h-0.1l0.1 0.1v0.3l-0.1 0.3q-0.8 0-0.8 0.2v0.1q0.9 0.1 0.9 0.3v1.8l-0.1 0.3 0.1 0.2-0.1 0.6 0.2 0.5v-0.1-0.3h0.1l0.3 0.1q0.2-0.1 0.5-0.1h6.8l4 0.3v-0.1q0-0.1-0.2-0.1v-0.1h0.5l0.7-0.1 0.2 0.1h2.9 0.4 0.1q1 0 2.7 0.8 0 0.4 0.7 0.8 1.4 1.2 1.4 3.7h-0.1 0.1v0.3h-0.1l0.1 0.1v0.4l-0.1 0.4 0.1 0.3-0.1 0.1 0.1 0.1-0.1 0.6 0.1 4v3.8l-0.1 0.6 0.1 0.2-0.1 1.4v0.6 0.4 0.2 0.2 0.6 1.2 0.8q0 2.7-2.2 4.3-1 0.7-3.3 0.7h-8-1-0.1-0.4-4.5l-0.9-0.1-0.2 0.1-0.5-0.1-0.4 0.1h-1.2-0.3q-0.7-0.1-2.6-0.1h-5.8l-0.1 0.1h-0.1v-0.3-8.9-1.3l0.4-0.1h1l1.7 0.1 0.9-0.1v0.1l0.2-0.1 1.3 0.1 0.3-0.1 0.3 0.1 0.1-0.1 0.8 0.3q0.6-0.2 1.6-0.2h0.2v0.1l-0.5 0.1v0.1l5.4-0.3h2.8l0.5 0.1 0.1-0.1h0.1l1.6 0.1h1.6q0.2 0 0.2 0.3h0.1q0-0.4 0.1-0.4h0.4l0.1 0.1h0.1v-0.1-0.1l0.1-0.8-0.1-2.2v-0.8-0.9-0.3-0.3-0.3l-0.3-0.1h-0.4q0-0.2-0.1-0.2-0.2 0-0.2 0.2h-0.2q-1.6-0.2-2.8-0.2h-0.3-0.4-1l-0.7 0.1v-0.1 0.1h-0.1l-1.6 0.1h-0.1-0.3-1.9l-1 0.1-0.1-0.1-0.5 0.1-0.2-0.1-0.6 0.1h-2.8q-2.6 0-2.6-0.6 0-0.3-0.8-0.3-1 0-2-2.2l-0.1-0.3h0.1q0.1 0.1 1.2 1.7l0.1 0.1-1.5-2.3q-0.2-0.4-0.2-1 0.1-0.3 0.2-0.3l-0.1-0.1v-3.4l0.1-0.6-0.2-0.1v-0.3l0.1 0.1h0.1v-4.5-1.4q0-0.5-0.3-0.5l0.1-0.7v-3.7l-0.1-0.4 0.1-0.2h-0.1l0.2-0.3-0.2-0.3h0.1v-0.4q0-0.7 0.5-2.1 1.8-2.5 4.2-2.5h0.2l0.2 0.1h0.3z"/>
</svg>